<svg width="40" height="40" viewBox="0 0 40 40" fill="none" xmlns="http://www.w3.org/2000/svg">
<path d="M35.6778 40H4.32221C1.93516 40 0 38.0648 0 35.6778V4.32221C0 1.93516 1.93516 0 4.32221 0H35.6778C38.0649 0 40 1.93516 40 4.32221V35.6777C40 38.0648 38.0648 40 35.6778 40Z" fill="#1EBDDA"/>
<path d="M27.8701 20.8697C27.8992 18.6082 29.0849 16.5193 31.0115 15.3348C29.7905 13.5911 27.8188 12.525 25.6911 12.4585C23.4525 12.2235 21.2824 13.798 20.1417 13.798C18.9789 13.798 17.2226 12.4818 15.3314 12.5207C12.843 12.6011 10.5794 13.9816 9.36878 16.1571C6.7907 20.6207 8.71369 27.1808 11.1834 30.7888C12.419 32.5556 13.8631 34.5291 15.7526 34.4591C17.6016 34.3824 18.2922 33.2801 20.5241 33.2801C22.7353 33.2801 23.3832 34.4591 25.3111 34.4146C27.2952 34.3824 28.5453 32.6399 29.7375 30.8565C30.6253 29.5976 31.3084 28.2062 31.7616 26.734C29.4051 25.7374 27.8729 23.4284 27.8701 20.8697Z" fill="white"/>
<path d="M24.2287 10.0858C25.3104 8.78721 25.8435 7.11791 25.7144 5.43262C24.0617 5.60616 22.5349 6.3961 21.4386 7.64495C20.3559 8.8771 19.8074 10.4891 19.9139 12.1259C21.5888 12.1432 23.1791 11.3913 24.2287 10.0858Z" fill="white"/>
</svg>
