<svg id="Layer_1" enable-background="new 0 0 64 64" viewBox="0 0 64 64" xmlns="http://www.w3.org/2000/svg"><path d="m57 11h-2v-2c0-1.6542969-1.3457031-3-3-3s-3 1.3457031-3 3v2h-4v-2c0-1.6542969-1.3457031-3-3-3s-3 1.3457031-3 3v2h-4v-2c0-1.6542969-1.3457031-3-3-3s-3 1.3457031-3 3v2h-4v-2c0-1.6542969-1.3457031-3-3-3s-3 1.3457031-3 3v2h-4v-2c0-1.6542969-1.3457031-3-3-3s-3 1.3457031-3 3v2h-2c-2.7568359 0-5 2.2431641-5 5v37c0 2.7568359 2.2431641 5 5 5h50c2.7568359 0 5-2.2431641 5-5v-37c0-2.7568359-2.2431641-5-5-5zm-6-2c0-.5517578.4482422-1 1-1s1 .4482422 1 1v6c0 .5517578-.4482422 1-1 1s-1-.4482422-1-1zm-10 0c0-.5517578.4482422-1 1-1s1 .4482422 1 1v6c0 .5517578-.4482422 1-1 1s-1-.4482422-1-1zm-10 0c0-.5517578.4482422-1 1-1s1 .4482422 1 1v6c0 .5517578-.4482422 1-1 1s-1-.4482422-1-1zm-10 0c0-.5517578.4482422-1 1-1s1 .4482422 1 1v6c0 .5517578-.4482422 1-1 1s-1-.4482422-1-1zm-10 0c0-.5517578.4482422-1 1-1s1 .4482422 1 1v6c0 .5517578-.4482422 1-1 1s-1-.4482422-1-1zm-4 4h2v2c0 1.6542969 1.3457031 3 3 3s3-1.3457031 3-3v-2h4v2c0 1.6542969 1.3457031 3 3 3s3-1.3457031 3-3v-2h4v2c0 1.6542969 1.3457031 3 3 3s3-1.3457031 3-3v-2h4v2c0 1.6542969 1.3457031 3 3 3s3-1.3457031 3-3v-2h4v2c0 1.6542969 1.3457031 3 3 3s3-1.3457031 3-3v-2h2c1.6542969 0 3 1.3457031 3 3v6h-56v-6c0-1.6542969 1.3457031-3 3-3zm50 43h-50c-1.6542969 0-3-1.3457031-3-3v-29h56v29c0 1.6542969-1.3457031 3-3 3zm-4-30h-6c-.5527344 0-1 .4472656-1 1v6c0 .5527344.4472656 1 1 1h6c.5527344 0 1-.4472656 1-1v-6c0-.5527344-.4472656-1-1-1zm-1 6h-4v-4h4zm1 4h-6c-.5527344 0-1 .4472656-1 1v6c0 .5527344.4472656 1 1 1h6c.5527344 0 1-.4472656 1-1v-6c0-.5527344-.4472656-1-1-1zm-1 6h-4v-4h4zm1 4h-6c-.5527344 0-1 .4472656-1 1v6c0 .5527344.4472656 1 1 1h6c.5527344 0 1-.4472656 1-1v-6c0-.5527344-.4472656-1-1-1zm-1 6h-4v-4h4zm-11-26h-6c-.5527344 0-1 .4472656-1 1v6c0 .5527344.4472656 1 1 1h6c.5527344 0 1-.4472656 1-1v-6c0-.5527344-.4472656-1-1-1zm-1 6h-4v-4h4zm1 4h-6c-.5527344 0-1 .4472656-1 1v6c0 .5527344.4472656 1 1 1h6c.5527344 0 1-.4472656 1-1v-6c0-.5527344-.4472656-1-1-1zm-1 6h-4v-4h4zm-11-16h-6c-.5527344 0-1 .4472656-1 1v6c0 .5527344.4472656 1 1 1h6c.5527344 0 1-.4472656 1-1v-6c0-.5527344-.4472656-1-1-1zm-1 6h-4v-4h4zm1 4h-6c-.5527344 0-1 .4472656-1 1v6c0 .5527344.4472656 1 1 1h6c.5527344 0 1-.4472656 1-1v-6c0-.5527344-.4472656-1-1-1zm-1 6h-4v-4h4zm-11-16h-6c-.5527344 0-1 .4472656-1 1v6c0 .5527344.4472656 1 1 1h6c.5527344 0 1-.4472656 1-1v-6c0-.5527344-.4472656-1-1-1zm-1 6h-4v-4h4zm1 4h-6c-.5527344 0-1 .4472656-1 1v6c0 .5527344.4472656 1 1 1h6c.5527344 0 1-.4472656 1-1v-6c0-.5527344-.4472656-1-1-1zm-1 6h-4v-4h4zm25 4h-6c-.5527344 0-1 .4472656-1 1v6c0 .5527344.4472656 1 1 1h6c.5527344 0 1-.4472656 1-1v-6c0-.5527344-.4472656-1-1-1zm-1 6h-4v-4h4zm-11-6h-6c-.5527344 0-1 .4472656-1 1v6c0 .5527344.4472656 1 1 1h6c.5527344 0 1-.4472656 1-1v-6c0-.5527344-.4472656-1-1-1zm-1 6h-4v-4h4zm-11-6h-6c-.5527344 0-1 .4472656-1 1v6c0 .5527344.4472656 1 1 1h6c.5527344 0 1-.4472656 1-1v-6c0-.5527344-.4472656-1-1-1zm-1 6h-4v-4h4z"/></svg>