<svg width="40" height="40" viewBox="0 0 40 40" fill="none" xmlns="http://www.w3.org/2000/svg">
<g clip-path="url(#clip0_4179_7008)">
<path fill-rule="evenodd" clip-rule="evenodd" d="M6.19132 0.535156H20.0691H20.1521H34.0298C37.0564 0.535156 39.5293 3.00805 39.5293 6.03458V34.0115C39.5293 37.038 37.0564 39.5109 34.0298 39.5109H20.1521H20.0691H6.19132C3.16479 39.5109 0.691895 37.038 0.691895 34.0115V6.03458C0.691895 3.00805 3.16479 0.535156 6.19132 0.535156ZM26.7588 14.6159H13.5915C13.1394 14.6159 12.798 14.6159 12.798 15.2341V15.3356H12.7796V26.6482C12.7796 28.0046 13.6654 28.8166 14.9203 28.9273V32.2122C14.9203 32.8489 14.9295 33.1534 15.234 33.504C16.3505 34.7681 18.0667 33.8085 18.0667 32.6182V28.9365H20.0691H20.1521H22.1544V32.6182C22.1544 33.8085 23.8707 34.7681 24.9872 33.504C25.3009 33.1534 25.3101 32.8489 25.3009 32.2122C25.3009 31.1234 25.3009 30.0253 25.3009 28.9273C26.5558 28.8258 27.4416 28.0046 27.4416 26.6482V15.3356H27.4232V15.2341C27.4232 14.6989 27.1648 14.6159 26.7403 14.6159H26.7588ZM13.7484 14.3022H26.5004C27.0264 14.0254 27.2202 13.5179 26.8787 12.6413C26.5004 11.6816 25.8914 10.7774 25.1717 10.0669L23.9814 9.11647C24.0829 8.70125 25.3839 6.8558 25.3839 6.44058C25.3839 6.07149 25.0425 5.96999 24.7103 5.96999C24.332 5.96999 23.1233 8.35984 22.9664 8.64588C22.2836 8.32293 21.1671 8.04611 20.1613 8.04611H20.1152H20.0691C19.0633 8.04611 17.9376 8.32293 17.264 8.64588C17.1163 8.35984 15.8984 5.96999 15.52 5.96999C15.1971 5.96999 14.8464 6.07149 14.8464 6.44058C14.8464 6.8558 16.1567 8.70125 16.249 9.11647L15.0587 10.0669C14.339 10.7774 13.7207 11.6816 13.3516 12.6413C13.0102 13.5179 13.204 14.0254 13.73 14.3022H13.7484ZM23.5293 9.95615C23.031 9.95615 22.625 10.3621 22.625 10.8604C22.625 11.3587 23.031 11.7647 23.5293 11.7647C24.0275 11.7647 24.4335 11.3587 24.4335 10.8604C24.4335 10.3621 24.0275 9.95615 23.5293 9.95615ZM31.2155 17.7531V22.9204C31.2155 23.7324 30.4128 24.3506 29.6654 24.3691C28.8995 24.3875 28.0691 23.7139 28.0691 22.9204V16.4244C28.0691 16.0461 28.3274 15.594 28.5304 15.4094C29.6838 14.3668 31.2155 15.9446 31.2155 17.7531ZM16.7103 9.95615C17.2086 9.95615 17.6146 10.3621 17.6146 10.8604C17.6146 11.3587 17.2086 11.7647 16.7103 11.7647C16.2121 11.7647 15.8061 11.3587 15.8061 10.8604C15.8061 10.3621 16.2121 9.95615 16.7103 9.95615ZM9.02407 17.7531V22.9204C9.02407 23.7324 9.82684 24.3506 10.5742 24.3691C11.3401 24.3875 12.1706 23.7139 12.1706 22.9204V16.4244C12.1706 16.0461 11.9122 15.594 11.7092 15.4094C10.5558 14.3668 9.02407 15.9446 9.02407 17.7531Z" fill="#1EBDDA"/>
</g>
<defs>
<clipPath id="clip0_4179_7008">
<rect width="40" height="40" fill="white"/>
</clipPath>
</defs>
</svg>
