<svg id="Layer_3" enable-background="new 0 0 64 64" height="512" viewBox="0 0 64 64" width="512" xmlns="http://www.w3.org/2000/svg"><g><path d="m20.701 9.382-1.357-1.469c-.497.459-.981.944-1.441 1.442l1.469 1.357c.424-.459.871-.906 1.329-1.33z"/><path d="m18.149 12.146-1.568-1.241c-.418.528-.821 1.083-1.201 1.649l1.662 1.113c.35-.523.723-1.035 1.107-1.521z"/><path d="m14.479 18.684-1.877-.693c-.234.635-.446 1.288-.63 1.941l1.926.541c.169-.601.365-1.203.581-1.789z"/><path d="m13.459 22.301-1.963-.385c-.132.671-.238 1.348-.316 2.011l1.986.234c.072-.612.171-1.239.293-1.86z"/><path d="m16.058 15.27-1.744-.979c-.331.589-.644 1.2-.928 1.816l1.814.84c.264-.569.552-1.133.858-1.677z"/><path d="m30.456 3.902-.545-1.924c-.652.185-1.305.397-1.938.632l.695 1.875c.585-.216 1.186-.412 1.788-.583z"/><path d="m34.142 3.169-.234-1.986c-.673.08-1.351.187-2.014.319l.391 1.961c.611-.122 1.236-.221 1.857-.294z"/><path d="m26.934 5.207-.842-1.814c-.615.286-1.226.598-1.814.929l.98 1.743c.543-.306 1.106-.594 1.676-.858z"/><path d="m23.655 7.05-1.113-1.662c-.559.375-1.113.778-1.648 1.201l1.24 1.569c.493-.389 1.006-.762 1.521-1.108z"/><path d="m37 53c.349 0 .694-.007 1.04-.021l-.08-1.998c-.318.013-.639.019-.96.019-13.233 0-24-10.767-24-24 0-.322.007-.643.019-.962l-1.998-.076c-.014.344-.021.69-.021 1.038 0 14.336 11.663 26 26 26z"/><path d="m42.106 52.498-.391-1.961c-.611.122-1.236.221-1.857.294l.234 1.986c.674-.079 1.351-.187 2.014-.319z"/><path d="m57.942 38.73 1.744.979c.331-.589.644-1.2.928-1.816l-1.814-.84c-.264.569-.552 1.133-.858 1.677z"/><path d="m50.345 46.95 1.113 1.662c.559-.375 1.113-.778 1.648-1.201l-1.24-1.569c-.493.389-1.006.762-1.521 1.108z"/><path d="m43.544 50.098.545 1.924c.652-.185 1.305-.397 1.938-.632l-.695-1.875c-.585.216-1.186.412-1.788.583z"/><path d="m60.541 31.699 1.963.385c.132-.671.238-1.348.316-2.011l-1.986-.234c-.072.612-.171 1.239-.293 1.86z"/><path d="m59.521 35.316 1.877.693c.234-.635.446-1.288.63-1.941l-1.926-.541c-.169.601-.365 1.203-.581 1.789z"/><path d="m53.299 44.618 1.357 1.469c.497-.459.981-.944 1.441-1.442l-1.469-1.357c-.424.459-.871.906-1.329 1.33z"/><path d="m47.066 48.793.842 1.814c.615-.286 1.226-.598 1.814-.929l-.98-1.743c-.543.306-1.106.594-1.676.858z"/><path d="m55.851 41.854 1.568 1.241c.418-.528.821-1.083 1.201-1.649l-1.662-1.113c-.35.523-.723 1.035-1.107 1.521z"/><path d="m37 1c-.349 0-.694.007-1.04.021l.08 1.998c.318-.013.639-.019.96-.019 13.233 0 24 10.767 24 24 0 .322-.007.643-.019.962l1.998.076c.014-.344.021-.69.021-1.038 0-14.336-11.663-26-26-26z"/><path d="m21 27c0 8.822 7.178 16 16 16s16-7.178 16-16-7.178-16-16-16-16 7.178-16 16zm16-14c7.72 0 14 6.28 14 14s-6.28 14-14 14-14-6.28-14-14 6.28-14 14-14z"/><path d="m25.686 26h22.627v2h-22.627z" transform="matrix(.707 -.707 .707 .707 -8.255 34.071)"/><path d="m32 26c2.206 0 4-1.794 4-4s-1.794-4-4-4-4 1.794-4 4 1.794 4 4 4zm0-6c1.103 0 2 .897 2 2s-.897 2-2 2-2-.897-2-2 .897-2 2-2z"/><path d="m42 28c-2.206 0-4 1.794-4 4s1.794 4 4 4 4-1.794 4-4-1.794-4-4-4zm0 6c-1.103 0-2-.897-2-2s.897-2 2-2 2 .897 2 2-.897 2-2 2z"/><path d="m20.707 29.293-3-3c-.391-.391-1.023-.391-1.414 0l-3 3 1.414 1.414 1.423-1.423c1.143 10.508 10.063 18.716 20.87 18.716 11.579 0 21-9.42 21-21s-9.421-21-21-21v2c10.477 0 19 8.523 19 19s-8.523 19-19 19c-9.587 0-17.517-7.144-18.798-16.384l1.091 1.091z"/><path d="m10 53h-8c-.553 0-1 .448-1 1v8c0 .552.447 1 1 1h8c.553 0 1-.448 1-1v-8c0-.552-.447-1-1-1zm-1 8h-6v-6h6z"/><path d="m13 61h31v2h-31z"/><path d="m13 57h19v2h-19z"/><path d="m34 57h2v2h-2z"/><path d="m38 57h2v2h-2z"/><path d="m42 57h2v2h-2z"/></g></svg>