<?xml version="1.0"?>
<svg xmlns="http://www.w3.org/2000/svg" id="Layer_1" data-name="Layer 1" viewBox="0 0 512 512"><path d="M61.067,102.459l-6.021-5.994a25.389,25.389,0,0,1,0-35.808L69.253,46.451a25.158,25.158,0,0,1,17.9-7.394v.026a25.24,25.24,0,0,1,17.9,7.368l5.994,5.994A113.292,113.292,0,0,1,128.4,45.262V36.786a25.38,25.38,0,0,1,25.324-25.324H173.8A25.379,25.379,0,0,1,199.12,36.786v8.476a112.96,112.96,0,0,1,17.323,7.183l6.021-5.994a25.388,25.388,0,0,1,35.807,0l14.207,14.206a25.391,25.391,0,0,1,0,35.808l-6.021,5.994a113.146,113.146,0,0,1,7.182,17.349h8.5a25.379,25.379,0,0,1,25.323,25.324V165.2a25.379,25.379,0,0,1-25.323,25.324h-8.5a112.9,112.9,0,0,1-7.182,17.323l6.021,6.02a25.391,25.391,0,0,1,0,35.808l-14.207,14.206a25.388,25.388,0,0,1-35.807,0l-6.021-6.02a111.887,111.887,0,0,1-17.323,7.182v8.5A25.379,25.379,0,0,1,173.8,298.871H153.727A25.38,25.38,0,0,1,128.4,273.547v-8.5a113.288,113.288,0,0,1-17.349-7.182l-5.994,6.02a25.388,25.388,0,0,1-35.807,0L55.046,249.676a25.389,25.389,0,0,1,0-35.808l6.021-6.02a113,113,0,0,1-7.183-17.323h-8.5A25.379,25.379,0,0,1,20.057,165.2V145.132a25.379,25.379,0,0,1,25.324-25.324h8.5a113.25,113.25,0,0,1,7.183-17.349ZM362.92,254.587A116.915,116.915,0,1,0,479.849,371.516,116.923,116.923,0,0,0,362.92,254.587Zm-91.234,25.694a129.025,129.025,0,1,1,0,182.469,129.031,129.031,0,0,1,0-182.469Zm85.187,31.635a6.061,6.061,0,0,1,12.121,0v11.619a27.3,27.3,0,0,1,21.521,26.67,6.061,6.061,0,1,1-12.121,0c0-13.467-16.372-20.254-25.905-10.721-9.242,9.243-3.247,26.011,10.141,26.011a27.3,27.3,0,0,1,6.364,53.843v11.751a6.061,6.061,0,0,1-12.121,0V419.47A27.3,27.3,0,0,1,335.352,392.8a6.047,6.047,0,0,1,12.094,0c0,13.494,16.4,20.28,25.931,10.748,9.533-9.56,2.746-25.932-10.747-25.932-23.978,0-35.649-29.76-18.7-46.686a27.069,27.069,0,0,1,12.939-7.262ZM296.8,417.568a6.047,6.047,0,0,1-9.955,6.866A93.526,93.526,0,0,1,270.1,371.04h-.026c0-51.044,41.669-92.291,92.845-92.344,7.684-.026,8.45,12.015-.449,12.042-44.046.185-80.276,35.939-80.276,80.3h-.026A81.928,81.928,0,0,0,296.8,417.568ZM402.345,301.01a6.041,6.041,0,1,1,5.915-10.536l8.82,5.651a6.024,6.024,0,1,1-7.051,9.77Zm32.111,33.008a6.041,6.041,0,1,1,10.694-5.624,92.867,92.867,0,0,1-16.583,108.768c-23.106,23.132-55.85,32.242-88.224,24.4a6.033,6.033,0,1,1,2.852-11.725c51.862,12.543,100.476-26.142,100.476-78.321a79.98,79.98,0,0,0-9.215-37.5ZM141.686,141.646a6.05,6.05,0,1,1,8.556-8.555L166.3,149.146l38.553.264a6.034,6.034,0,0,1-.052,12.068l-40.561-.291a5.973,5.973,0,0,1-4.753-1.743Zm-23.079-40.191,1.188,1.189a6.05,6.05,0,0,1-8.556,8.556l-1.188-1.189a69.957,69.957,0,0,0-16.187,39.082h1.663a6.061,6.061,0,1,1,0,12.121H93.864A69.874,69.874,0,0,0,110.051,200.3l1.188-1.162a6.05,6.05,0,0,1,8.556,8.556l-1.188,1.188a69.735,69.735,0,0,0,39.108,16.161v-1.663a6.047,6.047,0,1,1,12.094,0v1.663a69.662,69.662,0,0,0,39.082-16.161l-1.162-1.188a6.05,6.05,0,0,1,8.555-8.556l1.189,1.162a69.874,69.874,0,0,0,16.187-39.081H232a6.061,6.061,0,1,1,0-12.121h1.664a69.957,69.957,0,0,0-16.187-39.082l-1.189,1.189a6.05,6.05,0,0,1-8.555-8.556l1.162-1.189a69.894,69.894,0,0,0-39.082-16.187v1.664a6.047,6.047,0,0,1-12.094,0V85.268a69.967,69.967,0,0,0-39.108,16.187Zm-13.019-4.462a82.27,82.27,0,1,1,0,116.347,82.3,82.3,0,0,1,0-116.347Zm317.17,126.593a6.031,6.031,0,1,1,8.634-8.424l12.7,13.071c2.192-83.365-60.128-155.376-143.784-164.328A6.055,6.055,0,0,1,301.6,51.864c88.832,9.533,155.455,85.267,154.637,173.7l9.982-10.9a6.028,6.028,0,1,1,8.9,8.133l-21.205,23.158a6.031,6.031,0,0,1-9.031.423ZM85.677,300.8a6.048,6.048,0,1,1-7.71,9.321l-14-11.619A161.177,161.177,0,0,0,224.6,446.352a6.06,6.06,0,0,1,0,12.12A173.319,173.319,0,0,1,52.168,302.462l-8.741,11.91a6.045,6.045,0,1,1-9.744-7.157l18.643-25.4a6.094,6.094,0,0,1,8.9-1.32ZM63.6,87.883l9.189,9.189V97.1a6.019,6.019,0,0,1,.977,7.236c-3.354,5.941-7.895,16.108-9.453,22.683a6.061,6.061,0,0,1-5.942,4.885H45.381a13.287,13.287,0,0,0-13.229,13.23V165.2a13.264,13.264,0,0,0,13.229,13.2H58.347v.027a6.032,6.032,0,0,1,5.836,4.436c1.848,6.654,5.809,16.953,9.374,22.736a6.054,6.054,0,0,1-.766,7.632L63.6,222.424a13.293,13.293,0,0,0,0,18.7L77.808,255.3a13.269,13.269,0,0,0,18.7.026l9.163-9.189h.027a6.018,6.018,0,0,1,7.235-.977c5.942,3.354,16.108,7.9,22.684,9.454a6.06,6.06,0,0,1,4.885,5.941v12.992a13.264,13.264,0,0,0,13.229,13.2H173.8a13.242,13.242,0,0,0,13.2-13.2V260.555h.026a6.052,6.052,0,0,1,4.436-5.809c6.655-1.849,16.953-5.836,22.736-9.375a6.018,6.018,0,0,1,7.632.766l9.189,9.163a13.269,13.269,0,0,0,18.7.026l14.207-14.206a13.293,13.293,0,0,0,0-18.7l-9.19-9.189h0a6.052,6.052,0,0,1-.977-7.262c3.354-5.915,7.9-16.108,9.454-22.657a6.083,6.083,0,0,1,5.941-4.912h12.993a13.242,13.242,0,0,0,13.2-13.2V145.132a13.265,13.265,0,0,0-13.2-13.23H269.15a6.053,6.053,0,0,1-5.809-4.436c-1.848-6.654-5.836-16.953-9.374-22.736a6.056,6.056,0,0,1,.765-7.658l9.19-9.189a13.261,13.261,0,0,0,0-18.67L249.715,55.006a13.3,13.3,0,0,0-18.7,0L221.83,64.2h0a6.052,6.052,0,0,1-7.262.977c-5.915-3.38-16.108-7.9-22.657-9.48A6.04,6.04,0,0,1,187,49.752V36.786a13.265,13.265,0,0,0-13.2-13.23H153.727A13.287,13.287,0,0,0,140.5,36.786V49.752h0a6.061,6.061,0,0,1-4.436,5.835c-6.655,1.849-16.954,5.81-22.737,9.375a6.09,6.09,0,0,1-7.658-.766L96.5,55.006a13.154,13.154,0,0,0-9.348-3.855h0a13.175,13.175,0,0,0-9.348,3.855L63.6,69.213a13.261,13.261,0,0,0,0,18.67Z"/></svg>
