<svg xmlns="http://www.w3.org/2000/svg" xmlns:xlink="http://www.w3.org/1999/xlink" width="40" zoomAndPan="magnify" viewBox="0 0 30 30.000001" height="40" preserveAspectRatio="xMidYMid meet" version="1.0"><defs><clipPath id="ad58a06cae"><path d="M 2.371094 1.515625 L 27.046875 1.515625 L 27.046875 26.191406 L 2.371094 26.191406 Z M 2.371094 1.515625 " clip-rule="nonzero"/></clipPath></defs><g clip-path="url(#ad58a06cae)"><path fill="#dcd3d3" d="M 26.976562 21.839844 C 27.042969 22.453125 26.808594 23.089844 26.484375 23.519531 C 26.234375 23.851562 25.921875 24.050781 25.660156 24.085938 L 10.484375 26.105469 C 9.777344 26.199219 8.972656 25.683594 8.734375 24.992188 L 2.4375 6.796875 C 2.347656 6.542969 2.34375 6.089844 2.453125 5.648438 C 2.558594 5.210938 2.777344 4.785156 3.085938 4.550781 C 3.253906 4.375 3.503906 4.253906 3.820312 4.242188 L 7.253906 4.140625 C 7.253906 4.042969 7.265625 3.949219 7.292969 3.859375 C 7.378906 3.558594 7.582031 3.320312 8.011719 3.308594 L 8.941406 3.285156 C 8.992188 3.097656 9.09375 2.871094 9.300781 2.703125 C 9.46875 2.566406 9.703125 2.457031 10.039062 2.449219 C 10.757812 2.433594 11.390625 2.933594 11.671875 3.214844 L 12.695312 3.1875 C 13 3.179688 13.296875 3.328125 13.542969 3.535156 C 13.925781 3.109375 14.394531 2.726562 14.945312 2.40625 C 17.574219 0.878906 21.089844 1.394531 22.785156 3.53125 C 23.359375 4.253906 23.660156 5.074219 23.707031 5.898438 L 23.707031 5.902344 L 23.769531 7.058594 C 23.789062 7.214844 23.796875 7.371094 23.792969 7.527344 C 23.792969 7.527344 23.792969 7.53125 23.792969 7.53125 C 23.792969 8.113281 23.664062 8.695312 23.421875 9.246094 C 23.46875 9.359375 23.5 9.441406 23.511719 9.46875 C 23.511719 9.472656 23.515625 9.476562 23.515625 9.476562 C 23.515625 9.480469 23.515625 9.484375 23.519531 9.488281 C 23.65625 9.9375 23.765625 10.40625 23.324219 11.25 C 24.019531 12.160156 24.761719 12.773438 26.21875 14.230469 C 26.371094 14.371094 27.671875 15.640625 26.652344 16.996094 C 26.222656 17.570312 25.6875 17.871094 25.195312 17.929688 L 26.839844 21.308594 C 26.929688 21.492188 26.972656 21.671875 26.976562 21.839844 Z M 3.039062 5.945312 C 2.996094 6.199219 2.992188 6.441406 3.042969 6.585938 L 9.339844 24.78125 C 9.484375 25.203125 9.96875 25.527344 10.398438 25.46875 L 25.574219 23.453125 C 25.710938 23.4375 25.847656 23.300781 25.976562 23.132812 C 26.046875 23.039062 26.109375 22.933594 26.164062 22.820312 C 26.152344 22.824219 26.136719 22.824219 26.121094 22.828125 L 10.945312 24.84375 C 10.238281 24.9375 9.433594 24.421875 9.195312 23.730469 Z M 6.511719 4.800781 L 3.839844 4.882812 C 3.714844 4.886719 3.609375 4.925781 3.546875 4.996094 C 3.546875 5 3.542969 5 3.542969 5.003906 C 3.472656 5.085938 3.460938 5.207031 3.503906 5.324219 L 9.800781 23.523438 C 9.945312 23.945312 10.429688 24.265625 10.859375 24.210938 L 26.035156 22.191406 C 26.222656 22.167969 26.335938 22.035156 26.335938 21.863281 C 26.335938 21.777344 26.3125 21.683594 26.265625 21.589844 L 24.429688 17.816406 C 24.238281 17.730469 24.066406 17.601562 23.925781 17.425781 C 22.804688 19.03125 20.75 21.0625 17.363281 21.550781 C 17.359375 21.550781 17.359375 21.554688 17.355469 21.554688 L 10.445312 22.398438 C 10.296875 22.417969 10.15625 22.332031 10.105469 22.191406 L 4.039062 5.453125 C 4.007812 5.359375 4.019531 5.25 4.078125 5.164062 C 4.136719 5.082031 4.230469 5.027344 4.332031 5.027344 L 6.429688 4.976562 C 6.449219 4.914062 6.476562 4.855469 6.511719 4.800781 Z M 10.023438 3.089844 C 9.882812 3.097656 9.777344 3.136719 9.707031 3.195312 C 9.535156 3.335938 9.535156 3.570312 9.535156 3.585938 C 9.539062 3.671875 9.507812 3.753906 9.449219 3.816406 C 9.390625 3.878906 9.308594 3.914062 9.222656 3.914062 L 8.027344 3.945312 C 7.992188 3.949219 7.960938 3.949219 7.941406 3.96875 C 7.902344 4 7.898438 4.058594 7.890625 4.113281 C 7.882812 4.199219 7.890625 4.292969 7.902344 4.371094 C 7.90625 4.386719 7.910156 4.402344 7.910156 4.417969 C 7.921875 4.480469 7.9375 4.53125 7.949219 4.5625 C 7.976562 4.65625 7.960938 4.761719 7.902344 4.84375 C 7.847656 4.925781 7.753906 4.976562 7.652344 4.980469 C 7.597656 4.980469 7.429688 4.980469 7.261719 5.027344 C 7.175781 5.050781 7.078125 5.074219 7.046875 5.15625 C 7.042969 5.15625 7.042969 5.160156 7.042969 5.160156 L 12.644531 4.960938 C 12.773438 4.640625 12.945312 4.328125 13.152344 4.03125 C 13.023438 3.914062 12.875 3.820312 12.710938 3.824219 L 11.542969 3.855469 C 11.484375 3.855469 11.425781 3.839844 11.375 3.8125 C 11.378906 3.824219 11.382812 3.832031 11.386719 3.84375 C 11.507812 4.128906 11.492188 4.378906 11.410156 4.558594 C 11.304688 4.785156 11.097656 4.929688 10.832031 4.9375 C 10.445312 4.953125 9.917969 4.601562 9.71875 4.121094 C 9.601562 3.839844 9.621094 3.589844 9.703125 3.410156 C 9.773438 3.261719 9.882812 3.152344 10.023438 3.089844 Z M 23.070312 5.933594 C 23.027344 5.234375 22.773438 4.542969 22.285156 3.929688 C 20.765625 2.015625 17.621094 1.59375 15.265625 2.960938 C 14.21875 3.566406 13.503906 4.429688 13.171875 5.371094 C 13.171875 5.375 13.167969 5.382812 13.167969 5.386719 C 12.972656 5.957031 12.914062 6.550781 13.011719 7.136719 C 13.011719 7.136719 13.011719 7.140625 13.011719 7.144531 C 13.011719 7.144531 13.070312 7.558594 13.070312 7.558594 C 13.070312 7.5625 13.070312 7.5625 13.070312 7.566406 L 13.296875 9.238281 C 13.425781 9.554688 13.605469 9.863281 13.835938 10.152344 C 13.894531 10.226562 13.960938 10.300781 14.027344 10.375 C 14.027344 10.375 14.027344 10.378906 14.03125 10.378906 C 15.097656 11.539062 16.808594 12.0625 18.5 11.882812 C 18.453125 11.75 18.410156 11.59375 18.398438 11.4375 C 18.371094 11.074219 18.480469 10.707031 18.902344 10.472656 C 19.308594 10.253906 20.058594 10.046875 20.695312 9.675781 C 21.125 9.425781 21.546875 8.953125 21.886719 8.667969 C 22.089844 8.5 22.277344 8.390625 22.433594 8.363281 C 22.621094 8.324219 22.824219 8.398438 22.996094 8.566406 C 23.097656 8.226562 23.152344 7.882812 23.15625 7.535156 L 23.132812 7.105469 C 23.132812 7.105469 23.132812 7.101562 23.132812 7.101562 L 23.070312 5.964844 Z M 22.894531 10.640625 C 23.046875 10.222656 22.992188 9.949219 22.910156 9.683594 C 22.902344 9.660156 22.859375 9.539062 22.789062 9.402344 C 22.785156 9.390625 22.78125 9.382812 22.777344 9.371094 C 22.738281 9.296875 22.695312 9.214844 22.644531 9.144531 C 22.609375 9.09375 22.546875 9.027344 22.519531 9 C 22.488281 9.015625 22.457031 9.039062 22.421875 9.0625 C 22.335938 9.121094 22.246094 9.199219 22.152344 9.285156 C 21.8125 9.589844 21.417969 9.996094 21.015625 10.226562 C 20.375 10.601562 19.617188 10.808594 19.210938 11.035156 C 19.003906 11.148438 19.015625 11.351562 19.058594 11.523438 C 19.113281 11.761719 19.246094 11.964844 19.246094 11.964844 C 19.246094 11.96875 19.25 11.972656 19.25 11.976562 C 19.261719 11.992188 19.476562 12.351562 19.683594 12.601562 C 19.734375 12.664062 19.820312 12.742188 19.828125 12.753906 C 19.945312 12.800781 20.070312 12.792969 20.179688 12.769531 C 20.160156 12.734375 20.148438 12.699219 20.140625 12.664062 C 20.140625 12.664062 20.035156 12.066406 20.085938 11.558594 C 20.109375 11.292969 20.1875 11.050781 20.3125 10.894531 C 20.589844 10.542969 21.34375 10.039062 21.890625 9.964844 C 22.238281 9.921875 22.515625 10.027344 22.671875 10.285156 C 22.746094 10.410156 22.820312 10.527344 22.894531 10.640625 Z M 25.773438 14.6875 C 24.191406 13.109375 23.433594 12.492188 22.6875 11.46875 C 22.6875 11.464844 22.683594 11.464844 22.683594 11.460938 C 22.5 11.210938 22.316406 10.933594 22.125 10.617188 C 22.109375 10.589844 22.078125 10.59375 22.046875 10.59375 C 21.976562 10.59375 21.894531 10.609375 21.8125 10.636719 C 21.433594 10.753906 20.992188 11.0625 20.8125 11.289062 C 20.722656 11.402344 20.714844 11.605469 20.710938 11.800781 C 20.707031 12.019531 20.726562 12.234375 20.746094 12.378906 C 20.824219 12.417969 20.90625 12.46875 20.988281 12.523438 C 21.015625 12.539062 21.042969 12.554688 21.066406 12.578125 C 21.339844 12.777344 21.636719 13.0625 21.945312 13.425781 C 22.621094 14.214844 23.390625 15.371094 24.195312 16.671875 C 24.199219 16.675781 24.199219 16.679688 24.203125 16.679688 C 24.238281 16.738281 24.273438 16.796875 24.308594 16.855469 C 24.3125 16.859375 24.3125 16.863281 24.316406 16.867188 C 24.683594 17.53125 25.542969 17.40625 26.140625 16.613281 C 26.863281 15.652344 25.855469 14.761719 25.792969 14.707031 C 25.792969 14.707031 25.789062 14.703125 25.789062 14.703125 C 25.785156 14.699219 25.777344 14.691406 25.773438 14.6875 Z M 17.273438 20.917969 C 20.59375 20.4375 22.539062 18.367188 23.550781 16.839844 C 22.804688 15.640625 22.089844 14.578125 21.460938 13.839844 C 21.234375 13.578125 21.027344 13.359375 20.832031 13.195312 C 20.722656 13.253906 20.578125 13.320312 20.417969 13.367188 C 20.273438 13.410156 20.113281 13.433594 19.953125 13.425781 C 19.957031 13.441406 19.957031 13.457031 19.960938 13.472656 C 19.972656 13.648438 19.839844 13.800781 19.664062 13.816406 C 17.671875 13.96875 12.007812 14.332031 10.015625 14.488281 C 9.839844 14.5 9.6875 14.371094 9.675781 14.195312 C 9.660156 14.019531 9.792969 13.863281 9.96875 13.851562 C 11.882812 13.703125 17.191406 13.359375 19.367188 13.199219 C 19.308594 13.144531 19.25 13.082031 19.1875 13.007812 C 19.054688 12.84375 18.914062 12.636719 18.816406 12.488281 C 16.894531 12.765625 14.921875 12.199219 13.664062 10.921875 L 8.667969 11.207031 C 8.492188 11.214844 8.339844 11.082031 8.328125 10.90625 C 8.320312 10.726562 8.453125 10.578125 8.628906 10.566406 L 13.15625 10.308594 C 12.964844 10.03125 12.808594 9.742188 12.691406 9.441406 C 12.6875 9.429688 12.683594 9.414062 12.679688 9.402344 C 12.675781 9.386719 12.671875 9.371094 12.667969 9.355469 L 12.476562 7.9375 L 7.207031 8.140625 C 7.03125 8.148438 6.882812 8.007812 6.875 7.832031 C 6.871094 7.65625 7.007812 7.507812 7.183594 7.5 L 12.390625 7.300781 L 12.378906 7.234375 C 12.292969 6.695312 12.3125 6.144531 12.4375 5.609375 L 6.792969 5.808594 C 6.777344 5.8125 6.761719 5.8125 6.746094 5.808594 C 6.691406 5.804688 6.640625 5.785156 6.597656 5.757812 C 6.554688 5.730469 6.519531 5.6875 6.492188 5.640625 C 6.488281 5.632812 6.484375 5.625 6.480469 5.617188 L 4.792969 5.65625 L 10.621094 21.734375 Z M 10.300781 3.671875 C 10.265625 3.675781 10.273438 3.71875 10.277344 3.757812 C 10.28125 3.796875 10.292969 3.835938 10.308594 3.878906 C 10.371094 4.027344 10.492188 4.15625 10.621094 4.234375 C 10.683594 4.273438 10.75 4.300781 10.8125 4.300781 C 10.847656 4.300781 10.839844 4.253906 10.832031 4.214844 C 10.828125 4.175781 10.816406 4.136719 10.800781 4.09375 C 10.738281 3.945312 10.617188 3.820312 10.488281 3.742188 C 10.425781 3.703125 10.359375 3.671875 10.300781 3.671875 Z M 15.652344 3.226562 C 17.710938 2.03125 20.460938 2.4375 21.789062 4.113281 C 23.148438 5.824219 22.570312 8.210938 20.464844 9.433594 C 18.40625 10.628906 15.660156 10.222656 14.332031 8.550781 C 12.972656 6.839844 13.546875 4.449219 15.652344 3.226562 Z M 15.972656 3.78125 C 14.238281 4.785156 13.710938 6.742188 14.832031 8.152344 C 15.980469 9.597656 18.363281 9.914062 20.144531 8.882812 C 21.878906 7.875 22.40625 5.917969 21.289062 4.507812 C 20.136719 3.0625 17.753906 2.746094 15.972656 3.78125 Z M 15.832031 7.382812 C 15.351562 7.136719 15.144531 6.550781 15.316406 6.144531 C 15.496094 5.71875 16.058594 5.511719 16.5625 5.78125 L 17.816406 6.453125 C 18.175781 5.261719 18.476562 4.320312 18.539062 4.125 C 18.683594 3.6875 19.199219 3.453125 19.691406 3.691406 C 20.128906 3.90625 20.351562 4.4375 20.226562 4.832031 C 20.144531 5.089844 19.71875 6.421875 19.246094 8.050781 C 19.132812 8.4375 18.816406 8.554688 18.761719 8.574219 C 18.414062 8.707031 18.097656 8.550781 18.042969 8.523438 C 16.945312 7.964844 16.007812 7.476562 15.832031 7.382812 Z M 16.125 6.816406 C 16.300781 6.90625 17.238281 7.394531 18.335938 7.957031 C 18.351562 7.964844 18.4375 8.015625 18.535156 7.976562 C 18.546875 7.972656 18.609375 7.949219 18.632812 7.871094 C 19.109375 6.234375 19.535156 4.898438 19.617188 4.640625 C 19.660156 4.503906 19.558594 4.339844 19.410156 4.265625 C 19.304688 4.214844 19.179688 4.226562 19.148438 4.320312 C 19.082031 4.535156 18.722656 5.652344 18.320312 7.011719 C 18.292969 7.105469 18.222656 7.179688 18.136719 7.214844 C 18.046875 7.253906 17.945312 7.246094 17.863281 7.203125 L 16.261719 6.34375 C 16.121094 6.269531 15.957031 6.277344 15.90625 6.394531 C 15.84375 6.539062 15.957031 6.726562 16.125 6.816406 Z M 11.414062 17.882812 C 11.238281 17.902344 11.082031 17.773438 11.066406 17.597656 C 11.046875 17.421875 11.175781 17.265625 11.351562 17.25 C 13.378906 17.050781 19.074219 16.640625 21.101562 16.441406 C 21.277344 16.425781 21.433594 16.554688 21.449219 16.730469 C 21.46875 16.902344 21.339844 17.0625 21.164062 17.078125 C 19.136719 17.277344 13.441406 17.683594 11.414062 17.882812 Z M 11.414062 17.882812 " fill-opacity="1" fill-rule="evenodd"/></g></svg>