<svg xmlns="http://www.w3.org/2000/svg" xmlns:xlink="http://www.w3.org/1999/xlink" width="40" zoomAndPan="magnify" viewBox="0 0 30 30.000001" height="40" preserveAspectRatio="xMidYMid meet" version="1.0"><defs><clipPath id="4b077885a8"><path d="M 1.691406 1.121094 L 28.546875 1.121094 L 28.546875 27.976562 L 1.691406 27.976562 Z M 1.691406 1.121094 " clip-rule="nonzero"/></clipPath></defs><g clip-path="url(#4b077885a8)"><path fill="#dcd3d3" d="M 23.324219 19.738281 C 23.328125 19.726562 23.335938 19.714844 23.339844 19.707031 L 26.550781 13.398438 L 24.195312 12.199219 L 19.796875 20.847656 L 22.148438 22.046875 Z M 18.753906 21.019531 L 18.878906 22.730469 L 5.371094 22.730469 C 5.140625 22.730469 4.953125 22.917969 4.953125 23.148438 C 4.953125 23.378906 5.140625 23.570312 5.371094 23.570312 L 18.941406 23.570312 L 19 24.339844 C 19.023438 24.644531 19.363281 24.851562 19.664062 24.648438 L 22.335938 22.992188 C 22.375 22.988281 22.414062 22.980469 22.449219 22.96875 C 22.578125 22.925781 22.6875 22.839844 22.753906 22.710938 L 23.285156 21.660156 L 23.285156 25.59375 C 23.285156 26.394531 22.632812 27.050781 21.832031 27.050781 L 3.984375 27.050781 C 3.183594 27.050781 2.527344 26.394531 2.527344 25.59375 L 2.527344 7.191406 L 5.527344 7.191406 C 6.75 7.191406 7.746094 6.191406 7.746094 4.96875 L 7.746094 1.972656 L 21.832031 1.972656 C 22.605469 1.972656 23.246094 2.585938 23.285156 3.355469 L 13.523438 3.355469 C 13.164062 3.355469 12.867188 3.652344 12.867188 4.011719 L 12.867188 11.960938 C 12.867188 12.324219 13.164062 12.617188 13.523438 12.617188 L 23.011719 12.617188 C 21.875 14.835938 20.769531 17.085938 19.644531 19.304688 L 5.371094 19.304688 C 5.140625 19.304688 4.953125 19.492188 4.953125 19.726562 C 4.953125 19.957031 5.140625 20.144531 5.371094 20.144531 L 19.214844 20.144531 C 19.132812 20.304688 19.054688 20.460938 18.972656 20.617188 C 18.832031 20.695312 18.738281 20.847656 18.753906 21.019531 Z M 19.644531 21.710938 L 21.386719 22.597656 L 19.785156 23.589844 L 19.761719 23.261719 C 19.769531 23.226562 19.777344 23.1875 19.777344 23.148438 C 19.777344 23.085938 19.761719 23.027344 19.738281 22.976562 Z M 26.929688 12.652344 L 24.574219 11.453125 L 25.089844 10.445312 C 25.132812 10.367188 25.199219 10.332031 25.277344 10.371094 L 27.394531 11.449219 C 27.457031 11.480469 27.484375 11.5625 27.453125 11.625 Z M 24.125 20.011719 L 24.125 25.59375 C 24.125 26.859375 23.09375 27.890625 21.832031 27.890625 L 3.984375 27.890625 C 2.71875 27.890625 1.6875 26.859375 1.6875 25.59375 L 1.6875 6.828125 C 1.6875 6.65625 1.773438 6.5625 1.882812 6.457031 L 6.921875 1.28125 C 7.050781 1.136719 7.15625 1.132812 7.328125 1.132812 L 21.832031 1.132812 C 23.070312 1.132812 24.085938 2.121094 24.125 3.355469 L 25.234375 3.355469 C 25.59375 3.355469 25.890625 3.652344 25.890625 4.011719 L 25.890625 9.742188 L 27.773438 10.699219 C 28.25 10.941406 28.441406 11.53125 28.199219 12.007812 Z M 25.050781 9.53125 L 25.050781 4.195312 L 13.707031 4.195312 L 13.707031 11.78125 L 23.441406 11.78125 C 23.742188 11.199219 24.042969 10.621094 24.351562 10.046875 C 24.496094 9.765625 24.753906 9.585938 25.050781 9.53125 Z M 22.351562 5.960938 L 24.050781 5.960938 C 24.28125 5.960938 24.472656 5.769531 24.472656 5.539062 C 24.472656 5.308594 24.28125 5.121094 24.050781 5.121094 L 22.351562 5.121094 C 22.117188 5.121094 21.929688 5.308594 21.929688 5.539062 C 21.929688 5.769531 22.117188 5.960938 22.351562 5.960938 Z M 21 9.636719 L 21.207031 9.636719 C 21.4375 9.636719 21.625 9.449219 21.625 9.214844 C 21.625 8.984375 21.4375 8.796875 21.207031 8.796875 L 21 8.796875 C 20.769531 8.796875 20.582031 8.984375 20.582031 9.214844 C 20.582031 9.449219 20.769531 9.636719 21 9.636719 Z M 22.351562 9.636719 L 24.050781 9.636719 C 24.28125 9.636719 24.472656 9.449219 24.472656 9.214844 C 24.472656 8.984375 24.28125 8.796875 24.050781 8.796875 L 22.351562 8.796875 C 22.117188 8.796875 21.929688 8.984375 21.929688 9.214844 C 21.929688 9.449219 22.117188 9.636719 22.351562 9.636719 Z M 21 8.410156 L 21.207031 8.410156 C 21.4375 8.410156 21.625 8.222656 21.625 7.992188 C 21.625 7.757812 21.4375 7.570312 21.207031 7.570312 L 21 7.570312 C 20.769531 7.570312 20.582031 7.757812 20.582031 7.992188 C 20.582031 8.222656 20.769531 8.410156 21 8.410156 Z M 22.351562 8.410156 L 24.050781 8.410156 C 24.28125 8.410156 24.472656 8.222656 24.472656 7.992188 C 24.472656 7.757812 24.28125 7.570312 24.050781 7.570312 L 22.351562 7.570312 C 22.117188 7.570312 21.929688 7.757812 21.929688 7.992188 C 21.929688 8.222656 22.117188 8.410156 22.351562 8.410156 Z M 21 7.183594 L 21.207031 7.183594 C 21.4375 7.183594 21.625 6.996094 21.625 6.765625 C 21.625 6.535156 21.4375 6.34375 21.207031 6.34375 L 21 6.34375 C 20.769531 6.34375 20.582031 6.535156 20.582031 6.765625 C 20.582031 6.996094 20.769531 7.183594 21 7.183594 Z M 22.351562 7.183594 L 24.050781 7.183594 C 24.28125 7.183594 24.472656 6.996094 24.472656 6.765625 C 24.472656 6.535156 24.28125 6.34375 24.050781 6.34375 L 22.351562 6.34375 C 22.117188 6.34375 21.929688 6.535156 21.929688 6.765625 C 21.929688 6.996094 22.117188 7.183594 22.351562 7.183594 Z M 21 5.960938 L 21.207031 5.960938 C 21.4375 5.960938 21.625 5.769531 21.625 5.539062 C 21.625 5.308594 21.4375 5.121094 21.207031 5.121094 L 21 5.121094 C 20.769531 5.121094 20.582031 5.308594 20.582031 5.539062 C 20.582031 5.769531 20.769531 5.960938 21 5.960938 Z M 15.566406 10.050781 L 19.3125 10.050781 C 19.640625 10.050781 19.910156 9.785156 19.910156 9.457031 L 19.910156 5.300781 C 19.910156 5.136719 19.84375 4.988281 19.734375 4.878906 C 19.628906 4.773438 19.472656 4.703125 19.3125 4.703125 L 14.882812 4.703125 C 14.554688 4.703125 14.285156 4.972656 14.285156 5.300781 L 14.285156 9.457031 C 14.285156 9.621094 14.351562 9.769531 14.460938 9.878906 L 14.460938 9.875 C 14.570312 9.984375 14.71875 10.050781 14.882812 10.050781 Z M 15.125 8.992188 C 15.289062 8.5 15.632812 8.082031 16.078125 7.828125 C 15.382812 6.972656 15.992188 5.683594 17.097656 5.683594 C 18.203125 5.683594 18.8125 6.972656 18.117188 7.828125 C 18.5625 8.082031 18.910156 8.5 19.070312 8.992188 L 19.070312 5.542969 L 15.125 5.542969 Z M 18.257812 9.210938 C 17.957031 8.390625 16.910156 8.121094 16.261719 8.726562 C 16.117188 8.859375 16.003906 9.027344 15.9375 9.210938 Z M 17.097656 6.523438 C 16.675781 6.523438 16.464844 7.035156 16.761719 7.332031 C 17.058594 7.632812 17.570312 7.417969 17.570312 6.996094 C 17.570312 6.734375 17.359375 6.523438 17.097656 6.523438 Z M 5.371094 9.875 L 10.996094 9.875 C 11.230469 9.875 11.417969 9.6875 11.417969 9.453125 C 11.417969 9.222656 11.230469 9.035156 10.996094 9.035156 L 5.371094 9.035156 C 5.140625 9.035156 4.953125 9.222656 4.953125 9.453125 C 4.953125 9.6875 5.140625 9.875 5.371094 9.875 Z M 5.371094 16.722656 C 5.140625 16.722656 4.953125 16.535156 4.953125 16.300781 C 4.953125 16.070312 5.140625 15.882812 5.371094 15.882812 L 20.441406 15.882812 C 20.675781 15.882812 20.863281 16.070312 20.863281 16.300781 C 20.863281 16.535156 20.675781 16.722656 20.441406 16.722656 Z M 5.371094 13.296875 L 10.996094 13.296875 C 11.230469 13.296875 11.417969 13.109375 11.417969 12.878906 C 11.417969 12.648438 11.230469 12.457031 10.996094 12.457031 L 5.371094 12.457031 C 5.140625 12.457031 4.953125 12.648438 4.953125 12.878906 C 4.953125 13.109375 5.140625 13.296875 5.371094 13.296875 Z M 6.910156 2.496094 L 3.15625 6.351562 L 5.527344 6.351562 C 6.285156 6.351562 6.910156 5.730469 6.910156 4.96875 Z M 6.910156 2.496094 " fill-opacity="1" fill-rule="evenodd"/></g></svg>