<svg xmlns="http://www.w3.org/2000/svg" xmlns:xlink="http://www.w3.org/1999/xlink" width="40" zoomAndPan="magnify" viewBox="0 0 30 30.000001" height="40" preserveAspectRatio="xMidYMid meet" version="1.0"><defs><clipPath id="f277ab79b7"><path d="M 21 26 L 23 26 L 23 27.554688 L 21 27.554688 Z M 21 26 " clip-rule="nonzero"/></clipPath><clipPath id="3fd10492ac"><path d="M 6 1.425781 L 23 1.425781 L 23 15 L 6 15 Z M 6 1.425781 " clip-rule="nonzero"/></clipPath><clipPath id="4b4385c477"><path d="M 21 26 L 23 26 L 23 27.554688 L 21 27.554688 Z M 21 26 " clip-rule="nonzero"/></clipPath><clipPath id="1d6a9a8ca0"><path d="M 2.59375 26 L 23 26 L 23 27.554688 L 2.59375 27.554688 Z M 2.59375 26 " clip-rule="nonzero"/></clipPath><clipPath id="3e0b1a5c63"><path d="M 2.59375 26 L 4 26 L 4 27.554688 L 2.59375 27.554688 Z M 2.59375 26 " clip-rule="nonzero"/></clipPath><clipPath id="ffe132ea8b"><path d="M 2.59375 5 L 4 5 L 4 27.554688 L 2.59375 27.554688 Z M 2.59375 5 " clip-rule="nonzero"/></clipPath><clipPath id="0fba477aa2"><path d="M 2.59375 1.425781 L 7 1.425781 L 7 6 L 2.59375 6 Z M 2.59375 1.425781 " clip-rule="nonzero"/></clipPath><clipPath id="f9e7aa4d76"><path d="M 15 17 L 27.273438 17 L 27.273438 27.554688 L 15 27.554688 Z M 15 17 " clip-rule="nonzero"/></clipPath></defs><g clip-path="url(#f277ab79b7)"><path fill="#ffffff" d="M 21.6875 27.597656 C 21.511719 27.597656 21.371094 27.457031 21.371094 27.285156 L 21.371094 27.28125 C 21.371094 27.109375 21.511719 26.96875 21.6875 26.96875 C 21.859375 26.96875 22.003906 27.109375 22.003906 27.28125 C 22.003906 27.457031 21.859375 27.597656 21.6875 27.597656 Z M 21.6875 27.597656 " fill-opacity="1" fill-rule="nonzero"/></g><g clip-path="url(#3fd10492ac)"><path fill="#ffffff" d="M 21.6875 14.078125 C 21.511719 14.078125 21.371094 13.933594 21.371094 13.761719 L 21.371094 2.054688 L 6.558594 2.054688 C 6.382812 2.054688 6.242188 1.914062 6.242188 1.742188 C 6.242188 1.566406 6.382812 1.425781 6.558594 1.425781 L 21.6875 1.425781 C 21.859375 1.425781 22.003906 1.566406 22.003906 1.742188 L 22.003906 13.761719 C 22.003906 13.933594 21.859375 14.078125 21.6875 14.078125 Z M 21.6875 14.078125 " fill-opacity="1" fill-rule="nonzero"/></g><g clip-path="url(#4b4385c477)"><path fill="#ffffff" d="M 21.6875 27.597656 C 21.511719 27.597656 21.371094 27.457031 21.371094 27.285156 L 21.371094 27.277344 C 21.371094 27.101562 21.511719 26.960938 21.6875 26.960938 C 21.859375 26.960938 22.003906 27.101562 22.003906 27.277344 L 22.003906 27.28125 C 22.003906 27.457031 21.859375 27.597656 21.6875 27.597656 Z M 21.6875 27.597656 " fill-opacity="1" fill-rule="nonzero"/></g><g clip-path="url(#1d6a9a8ca0)"><path fill="#ffffff" d="M 21.6875 27.597656 L 2.921875 27.597656 C 2.75 27.597656 2.605469 27.457031 2.605469 27.28125 C 2.605469 27.109375 2.75 26.96875 2.921875 26.96875 L 21.6875 26.96875 C 21.859375 26.96875 22.003906 27.109375 22.003906 27.28125 C 22.003906 27.457031 21.859375 27.597656 21.6875 27.597656 Z M 21.6875 27.597656 " fill-opacity="1" fill-rule="nonzero"/></g><g clip-path="url(#3e0b1a5c63)"><path fill="#ffffff" d="M 2.921875 27.597656 C 2.75 27.597656 2.605469 27.457031 2.605469 27.28125 C 2.605469 27.105469 2.75 26.964844 2.921875 26.964844 C 3.097656 26.964844 3.238281 27.105469 3.238281 27.28125 C 3.238281 27.453125 3.097656 27.597656 2.921875 27.597656 Z M 2.921875 27.597656 " fill-opacity="1" fill-rule="nonzero"/></g><g clip-path="url(#ffe132ea8b)"><path fill="#ffffff" d="M 2.921875 27.597656 C 2.75 27.597656 2.605469 27.457031 2.605469 27.28125 L 2.605469 5.574219 C 2.605469 5.398438 2.75 5.257812 2.921875 5.257812 C 3.097656 5.257812 3.238281 5.398438 3.238281 5.574219 L 3.238281 27.28125 C 3.238281 27.453125 3.097656 27.597656 2.921875 27.597656 Z M 2.921875 27.597656 " fill-opacity="1" fill-rule="nonzero"/></g><g clip-path="url(#0fba477aa2)"><path fill="#ffffff" d="M 6.558594 5.886719 L 2.921875 5.886719 C 2.796875 5.886719 2.683594 5.8125 2.632812 5.695312 C 2.582031 5.582031 2.609375 5.445312 2.695312 5.355469 L 6.328125 1.523438 C 6.417969 1.429688 6.554688 1.398438 6.675781 1.449219 C 6.796875 1.496094 6.875 1.609375 6.875 1.738281 L 6.875 5.574219 C 6.875 5.746094 6.734375 5.886719 6.558594 5.886719 Z M 3.65625 5.257812 L 6.242188 5.257812 L 6.242188 2.53125 Z M 3.65625 5.257812 " fill-opacity="1" fill-rule="nonzero"/></g><path fill="#ffffff" d="M 15.007812 17.714844 L 4.777344 17.714844 C 4.601562 17.714844 4.460938 17.574219 4.460938 17.398438 C 4.460938 17.222656 4.601562 17.082031 4.777344 17.082031 L 15.007812 17.082031 C 15.179688 17.082031 15.320312 17.222656 15.320312 17.398438 C 15.320312 17.574219 15.179688 17.714844 15.007812 17.714844 Z M 15.007812 17.714844 " fill-opacity="1" fill-rule="nonzero"/><path fill="#ffffff" d="M 15.007812 15.789062 L 4.777344 15.789062 C 4.601562 15.789062 4.460938 15.648438 4.460938 15.472656 C 4.460938 15.300781 4.601562 15.160156 4.777344 15.160156 L 15.007812 15.160156 C 15.179688 15.160156 15.320312 15.300781 15.320312 15.472656 C 15.320312 15.648438 15.179688 15.789062 15.007812 15.789062 Z M 15.007812 15.789062 " fill-opacity="1" fill-rule="nonzero"/><path fill="#ffffff" d="M 17.136719 13.863281 L 4.742188 13.863281 C 4.566406 13.863281 4.425781 13.722656 4.425781 13.550781 C 4.425781 13.375 4.566406 13.234375 4.742188 13.234375 L 17.136719 13.234375 C 17.308594 13.234375 17.449219 13.375 17.449219 13.550781 C 17.449219 13.722656 17.308594 13.863281 17.136719 13.863281 Z M 17.136719 13.863281 " fill-opacity="1" fill-rule="nonzero"/><path fill="#ffffff" d="M 19.832031 11.941406 L 4.777344 11.941406 C 4.601562 11.941406 4.460938 11.800781 4.460938 11.625 C 4.460938 11.449219 4.601562 11.308594 4.777344 11.308594 L 19.832031 11.308594 C 20.007812 11.308594 20.148438 11.449219 20.148438 11.625 C 20.148438 11.800781 20.007812 11.941406 19.832031 11.941406 Z M 19.832031 11.941406 " fill-opacity="1" fill-rule="nonzero"/><path fill="#ffffff" d="M 19.832031 10.015625 L 4.777344 10.015625 C 4.601562 10.015625 4.460938 9.875 4.460938 9.699219 C 4.460938 9.527344 4.601562 9.386719 4.777344 9.386719 L 19.832031 9.386719 C 20.007812 9.386719 20.148438 9.527344 20.148438 9.699219 C 20.148438 9.875 20.007812 10.015625 19.832031 10.015625 Z M 19.832031 10.015625 " fill-opacity="1" fill-rule="nonzero"/><path fill="#dcd3d3" d="M 18.332031 8.984375 L 15.898438 8.984375 C 15.304688 8.984375 14.820312 8.5 14.820312 7.90625 L 14.820312 4.277344 C 14.820312 3.683594 15.304688 3.203125 15.898438 3.203125 L 18.332031 3.203125 C 18.925781 3.203125 19.40625 3.683594 19.40625 4.277344 L 19.40625 7.90625 C 19.40625 8.5 18.925781 8.984375 18.332031 8.984375 Z M 15.898438 3.832031 C 15.652344 3.832031 15.453125 4.03125 15.453125 4.277344 L 15.453125 7.90625 C 15.453125 8.152344 15.652344 8.355469 15.898438 8.355469 L 18.332031 8.355469 C 18.578125 8.355469 18.777344 8.152344 18.777344 7.90625 L 18.777344 4.277344 C 18.777344 4.03125 18.578125 3.832031 18.332031 3.832031 Z M 15.898438 3.832031 " fill-opacity="1" fill-rule="nonzero"/><path fill="#dcd3d3" d="M 16.296875 4.515625 C 16.121094 4.515625 15.980469 4.375 15.980469 4.203125 L 15.980469 2.832031 C 15.980469 2.660156 16.121094 2.519531 16.296875 2.519531 C 16.46875 2.519531 16.609375 2.660156 16.609375 2.832031 L 16.609375 4.203125 C 16.609375 4.375 16.46875 4.515625 16.296875 4.515625 Z M 16.296875 4.515625 " fill-opacity="1" fill-rule="nonzero"/><path fill="#dcd3d3" d="M 17.933594 4.515625 C 17.757812 4.515625 17.617188 4.375 17.617188 4.203125 L 17.617188 2.832031 C 17.617188 2.660156 17.757812 2.519531 17.933594 2.519531 C 18.105469 2.519531 18.25 2.660156 18.25 2.832031 L 18.25 4.203125 C 18.25 4.375 18.109375 4.515625 17.933594 4.515625 Z M 17.933594 4.515625 " fill-opacity="1" fill-rule="nonzero"/><path fill="#dcd3d3" d="M 19.09375 5.378906 L 15.136719 5.378906 C 14.960938 5.378906 14.820312 5.238281 14.820312 5.0625 C 14.820312 4.886719 14.960938 4.746094 15.136719 4.746094 L 19.09375 4.746094 C 19.265625 4.746094 19.40625 4.886719 19.40625 5.0625 C 19.40625 5.238281 19.265625 5.378906 19.09375 5.378906 Z M 19.09375 5.378906 " fill-opacity="1" fill-rule="nonzero"/><path fill="#dcd3d3" d="M 16.101562 6.226562 L 15.765625 6.226562 C 15.59375 6.226562 15.453125 6.085938 15.453125 5.910156 C 15.453125 5.738281 15.59375 5.597656 15.765625 5.597656 L 16.101562 5.597656 C 16.273438 5.597656 16.417969 5.738281 16.417969 5.910156 C 16.417969 6.085938 16.273438 6.226562 16.101562 6.226562 Z M 16.101562 6.226562 " fill-opacity="1" fill-rule="nonzero"/><path fill="#dcd3d3" d="M 17.28125 6.226562 L 16.949219 6.226562 C 16.773438 6.226562 16.632812 6.085938 16.632812 5.910156 C 16.632812 5.738281 16.773438 5.597656 16.949219 5.597656 L 17.28125 5.597656 C 17.457031 5.597656 17.597656 5.738281 17.597656 5.910156 C 17.597656 6.085938 17.457031 6.226562 17.28125 6.226562 Z M 17.28125 6.226562 " fill-opacity="1" fill-rule="nonzero"/><path fill="#dcd3d3" d="M 18.460938 6.226562 L 18.128906 6.226562 C 17.953125 6.226562 17.8125 6.085938 17.8125 5.910156 C 17.8125 5.738281 17.953125 5.597656 18.128906 5.597656 L 18.460938 5.597656 C 18.636719 5.597656 18.777344 5.738281 18.777344 5.910156 C 18.777344 6.085938 18.636719 6.226562 18.460938 6.226562 Z M 18.460938 6.226562 " fill-opacity="1" fill-rule="nonzero"/><path fill="#dcd3d3" d="M 16.101562 7.078125 L 15.765625 7.078125 C 15.59375 7.078125 15.453125 6.933594 15.453125 6.761719 C 15.453125 6.585938 15.59375 6.445312 15.765625 6.445312 L 16.101562 6.445312 C 16.273438 6.445312 16.417969 6.585938 16.417969 6.761719 C 16.417969 6.933594 16.273438 7.078125 16.101562 7.078125 Z M 16.101562 7.078125 " fill-opacity="1" fill-rule="nonzero"/><path fill="#dcd3d3" d="M 17.28125 7.078125 L 16.949219 7.078125 C 16.773438 7.078125 16.632812 6.933594 16.632812 6.761719 C 16.632812 6.585938 16.773438 6.445312 16.949219 6.445312 L 17.28125 6.445312 C 17.457031 6.445312 17.597656 6.585938 17.597656 6.761719 C 17.597656 6.933594 17.457031 7.078125 17.28125 7.078125 Z M 17.28125 7.078125 " fill-opacity="1" fill-rule="nonzero"/><path fill="#dcd3d3" d="M 18.460938 7.078125 L 18.128906 7.078125 C 17.953125 7.078125 17.8125 6.933594 17.8125 6.761719 C 17.8125 6.585938 17.953125 6.445312 18.128906 6.445312 L 18.460938 6.445312 C 18.636719 6.445312 18.777344 6.585938 18.777344 6.761719 C 18.777344 6.933594 18.636719 7.078125 18.460938 7.078125 Z M 18.460938 7.078125 " fill-opacity="1" fill-rule="nonzero"/><path fill="#dcd3d3" d="M 16.101562 7.925781 L 15.765625 7.925781 C 15.59375 7.925781 15.453125 7.785156 15.453125 7.609375 C 15.453125 7.4375 15.59375 7.296875 15.765625 7.296875 L 16.101562 7.296875 C 16.273438 7.296875 16.417969 7.4375 16.417969 7.609375 C 16.417969 7.785156 16.273438 7.925781 16.101562 7.925781 Z M 16.101562 7.925781 " fill-opacity="1" fill-rule="nonzero"/><path fill="#dcd3d3" d="M 17.28125 7.925781 L 16.949219 7.925781 C 16.773438 7.925781 16.632812 7.785156 16.632812 7.609375 C 16.632812 7.4375 16.773438 7.296875 16.949219 7.296875 L 17.28125 7.296875 C 17.457031 7.296875 17.597656 7.4375 17.597656 7.609375 C 17.597656 7.785156 17.457031 7.925781 17.28125 7.925781 Z M 17.28125 7.925781 " fill-opacity="1" fill-rule="nonzero"/><path fill="#dcd3d3" d="M 18.460938 7.925781 L 18.128906 7.925781 C 17.953125 7.925781 17.8125 7.785156 17.8125 7.609375 C 17.8125 7.4375 17.953125 7.296875 18.128906 7.296875 L 18.460938 7.296875 C 18.636719 7.296875 18.777344 7.4375 18.777344 7.609375 C 18.777344 7.785156 18.636719 7.925781 18.460938 7.925781 Z M 18.460938 7.925781 " fill-opacity="1" fill-rule="nonzero"/><g clip-path="url(#f9e7aa4d76)"><path fill="#dcd3d3" d="M 21.058594 27.597656 C 20.921875 27.597656 20.785156 27.597656 20.648438 27.59375 C 20.0625 27.578125 19.585938 27.527344 19.148438 27.425781 C 18.300781 27.230469 16.746094 26.703125 15.882812 25.355469 C 15.859375 25.316406 15.832031 25.277344 15.808594 25.238281 C 15.730469 25.101562 15.660156 24.957031 15.601562 24.816406 C 15.277344 24.046875 15.261719 23.117188 15.554688 22.132812 C 15.851562 21.128906 16.464844 20.0625 17.335938 19.054688 C 17.785156 18.535156 18.300781 18.027344 18.875 17.546875 C 19.007812 17.4375 19.207031 17.453125 19.320312 17.585938 C 19.429688 17.722656 19.414062 17.917969 19.277344 18.03125 C 18.734375 18.488281 18.238281 18.972656 17.8125 19.46875 C 17 20.40625 16.429688 21.390625 16.160156 22.3125 C 15.910156 23.15625 15.917969 23.9375 16.183594 24.574219 C 16.230469 24.691406 16.289062 24.804688 16.355469 24.917969 C 16.375 24.953125 16.394531 24.984375 16.414062 25.015625 C 17.15625 26.175781 18.535156 26.640625 19.289062 26.8125 C 19.683594 26.902344 20.121094 26.949219 20.667969 26.964844 C 20.976562 26.972656 21.289062 26.96875 21.59375 26.964844 C 22.347656 26.953125 23.078125 26.925781 23.78125 26.722656 C 25.132812 26.332031 26.140625 25.550781 26.546875 24.574219 C 27.28125 22.824219 26.035156 20.191406 23.453125 18.03125 C 23.316406 17.917969 23.300781 17.722656 23.410156 17.585938 C 23.523438 17.453125 23.722656 17.4375 23.855469 17.546875 C 25.226562 18.695312 26.265625 19.984375 26.851562 21.273438 C 27.453125 22.589844 27.546875 23.816406 27.128906 24.816406 C 26.648438 25.96875 25.492188 26.886719 23.953125 27.332031 C 23.179688 27.554688 22.402344 27.582031 21.605469 27.59375 C 21.425781 27.597656 21.242188 27.597656 21.058594 27.597656 Z M 21.058594 27.597656 " fill-opacity="1" fill-rule="nonzero"/></g><path fill="#dcd3d3" d="M 23.148438 18.285156 L 19.582031 18.285156 C 18.917969 18.285156 18.378906 17.6875 18.378906 16.949219 C 18.378906 16.675781 18.449219 16.414062 18.589844 16.1875 C 18.628906 16.125 18.671875 16.066406 18.71875 16.015625 C 18.945312 15.757812 19.253906 15.613281 19.582031 15.613281 L 23.148438 15.613281 C 23.8125 15.613281 24.351562 16.210938 24.351562 16.949219 C 24.351562 17.296875 24.234375 17.628906 24.015625 17.878906 C 23.785156 18.140625 23.476562 18.285156 23.148438 18.285156 Z M 19.582031 16.242188 C 19.4375 16.242188 19.296875 16.308594 19.191406 16.433594 C 19.167969 16.460938 19.148438 16.488281 19.125 16.523438 C 19.046875 16.648438 19.007812 16.792969 19.007812 16.949219 C 19.007812 17.339844 19.265625 17.65625 19.582031 17.65625 L 23.148438 17.65625 C 23.292969 17.65625 23.433594 17.585938 23.539062 17.464844 C 23.65625 17.328125 23.722656 17.144531 23.722656 16.949219 C 23.722656 16.558594 23.464844 16.242188 23.148438 16.242188 Z M 19.582031 16.242188 " fill-opacity="1" fill-rule="nonzero"/><path fill="#dcd3d3" d="M 19.96875 16.242188 C 19.859375 16.242188 19.753906 16.1875 19.695312 16.085938 L 18.445312 13.917969 C 18.390625 13.820312 18.390625 13.703125 18.445312 13.605469 C 18.503906 13.507812 18.605469 13.445312 18.71875 13.445312 L 24.011719 13.445312 C 24.125 13.445312 24.226562 13.507812 24.285156 13.605469 C 24.339844 13.703125 24.339844 13.820312 24.285156 13.917969 L 23.035156 16.085938 C 22.949219 16.234375 22.753906 16.285156 22.605469 16.199219 C 22.453125 16.113281 22.402344 15.921875 22.488281 15.769531 L 23.464844 14.078125 L 19.265625 14.078125 L 20.242188 15.769531 C 20.328125 15.921875 20.277344 16.113281 20.125 16.199219 C 20.078125 16.230469 20.023438 16.242188 19.96875 16.242188 Z M 19.96875 16.242188 " fill-opacity="1" fill-rule="nonzero"/><path fill="#dcd3d3" d="M 21.367188 25.984375 C 19.4375 25.984375 17.867188 24.414062 17.867188 22.484375 C 17.867188 22.390625 17.871094 22.292969 17.878906 22.195312 C 17.949219 21.324219 18.34375 20.515625 18.988281 19.917969 C 19.636719 19.320312 20.480469 18.988281 21.367188 18.988281 C 23.292969 18.988281 24.863281 20.558594 24.863281 22.484375 C 24.863281 24.414062 23.292969 25.984375 21.367188 25.984375 Z M 21.367188 19.617188 C 19.882812 19.617188 18.628906 20.773438 18.507812 22.25 C 18.5 22.328125 18.496094 22.40625 18.496094 22.484375 C 18.496094 24.066406 19.785156 25.351562 21.367188 25.351562 C 22.945312 25.351562 24.230469 24.066406 24.230469 22.484375 C 24.230469 20.90625 22.945312 19.617188 21.367188 19.617188 Z M 21.367188 19.617188 " fill-opacity="1" fill-rule="nonzero"/><path fill="#dcd3d3" d="M 21.289062 24.371094 C 21.011719 24.371094 20.75 24.269531 20.546875 24.085938 C 20.332031 23.890625 20.210938 23.621094 20.203125 23.328125 C 20.199219 23.15625 20.335938 23.011719 20.507812 23.003906 C 20.511719 23.003906 20.515625 23.003906 20.519531 23.003906 C 20.6875 23.003906 20.828125 23.140625 20.832031 23.3125 C 20.835938 23.429688 20.886719 23.539062 20.972656 23.621094 C 21.066406 23.703125 21.191406 23.746094 21.324219 23.738281 C 21.597656 23.722656 21.8125 23.496094 21.804688 23.230469 C 21.800781 23.089844 21.753906 22.96875 21.667969 22.890625 C 21.59375 22.824219 21.5 22.792969 21.382812 22.800781 C 21.101562 22.816406 20.835938 22.726562 20.636719 22.546875 C 20.425781 22.351562 20.304688 22.070312 20.292969 21.757812 C 20.277344 21.160156 20.761719 20.640625 21.371094 20.605469 C 21.671875 20.585938 21.960938 20.6875 22.183594 20.886719 C 22.398438 21.082031 22.519531 21.351562 22.527344 21.644531 C 22.53125 21.816406 22.394531 21.960938 22.222656 21.964844 C 22.046875 21.96875 21.902344 21.835938 21.898438 21.660156 C 21.894531 21.542969 21.84375 21.433594 21.757812 21.351562 C 21.664062 21.269531 21.539062 21.226562 21.40625 21.234375 C 21.132812 21.25 20.917969 21.476562 20.925781 21.742188 C 20.929688 21.882812 20.976562 22.003906 21.0625 22.082031 C 21.136719 22.148438 21.230469 22.179688 21.347656 22.171875 C 21.628906 22.152344 21.894531 22.246094 22.09375 22.425781 C 22.304688 22.621094 22.425781 22.902344 22.4375 23.214844 C 22.453125 23.8125 21.96875 24.332031 21.359375 24.367188 C 21.335938 24.371094 21.3125 24.371094 21.289062 24.371094 Z M 21.289062 24.371094 " fill-opacity="1" fill-rule="nonzero"/><path fill="#dcd3d3" d="M 21.367188 25.023438 C 21.191406 25.023438 21.050781 24.882812 21.050781 24.707031 L 21.050781 24.050781 C 21.050781 23.878906 21.191406 23.734375 21.367188 23.734375 C 21.539062 23.734375 21.679688 23.878906 21.679688 24.050781 L 21.679688 24.707031 C 21.679688 24.882812 21.539062 25.023438 21.367188 25.023438 Z M 21.367188 25.023438 " fill-opacity="1" fill-rule="nonzero"/><path fill="#dcd3d3" d="M 21.367188 21.234375 C 21.191406 21.234375 21.050781 21.09375 21.050781 20.921875 L 21.050781 20.261719 C 21.050781 20.089844 21.191406 19.949219 21.367188 19.949219 C 21.539062 19.949219 21.679688 20.089844 21.679688 20.261719 L 21.679688 20.921875 C 21.679688 21.09375 21.539062 21.234375 21.367188 21.234375 Z M 21.367188 21.234375 " fill-opacity="1" fill-rule="nonzero"/><path fill="#dcd3d3" d="M 12.785156 6.035156 L 8.910156 6.035156 C 8.347656 6.035156 7.886719 5.578125 7.886719 5.015625 L 7.886719 4.847656 C 7.886719 4.285156 8.347656 3.828125 8.910156 3.828125 L 12.785156 3.828125 C 13.347656 3.828125 13.808594 4.285156 13.808594 4.847656 L 13.808594 5.015625 C 13.808594 5.578125 13.347656 6.035156 12.785156 6.035156 Z M 8.910156 4.457031 C 8.695312 4.457031 8.519531 4.632812 8.519531 4.847656 L 8.519531 5.015625 C 8.519531 5.230469 8.695312 5.402344 8.910156 5.402344 L 12.785156 5.402344 C 13 5.402344 13.175781 5.230469 13.175781 5.015625 L 13.175781 4.847656 C 13.175781 4.632812 13 4.457031 12.785156 4.457031 Z M 8.910156 4.457031 " fill-opacity="1" fill-rule="nonzero"/><path fill="#dcd3d3" d="M 14.445312 26.242188 L 4.777344 26.242188 C 4.601562 26.242188 4.460938 26.101562 4.460938 25.925781 L 4.460938 19.582031 C 4.460938 19.40625 4.601562 19.265625 4.777344 19.265625 L 14.445312 19.265625 C 14.617188 19.265625 14.761719 19.40625 14.761719 19.582031 L 14.761719 25.925781 C 14.761719 26.101562 14.617188 26.242188 14.445312 26.242188 Z M 5.09375 25.609375 L 14.128906 25.609375 L 14.128906 19.894531 L 5.09375 19.894531 Z M 5.09375 25.609375 " fill-opacity="1" fill-rule="nonzero"/><path fill="#dcd3d3" d="M 14.445312 21.664062 L 4.777344 21.664062 C 4.601562 21.664062 4.460938 21.519531 4.460938 21.347656 C 4.460938 21.171875 4.601562 21.03125 4.777344 21.03125 L 14.445312 21.03125 C 14.617188 21.03125 14.761719 21.171875 14.761719 21.347656 C 14.761719 21.519531 14.617188 21.664062 14.445312 21.664062 Z M 14.445312 21.664062 " fill-opacity="1" fill-rule="nonzero"/><path fill="#dcd3d3" d="M 14.445312 23.070312 L 4.777344 23.070312 C 4.601562 23.070312 4.460938 22.925781 4.460938 22.753906 C 4.460938 22.578125 4.601562 22.4375 4.777344 22.4375 L 14.445312 22.4375 C 14.617188 22.4375 14.761719 22.578125 14.761719 22.753906 C 14.761719 22.925781 14.617188 23.070312 14.445312 23.070312 Z M 14.445312 23.070312 " fill-opacity="1" fill-rule="nonzero"/><path fill="#dcd3d3" d="M 14.445312 24.476562 L 4.777344 24.476562 C 4.601562 24.476562 4.460938 24.332031 4.460938 24.160156 C 4.460938 23.984375 4.601562 23.84375 4.777344 23.84375 L 14.445312 23.84375 C 14.617188 23.84375 14.761719 23.984375 14.761719 24.160156 C 14.761719 24.332031 14.617188 24.476562 14.445312 24.476562 Z M 14.445312 24.476562 " fill-opacity="1" fill-rule="nonzero"/><path fill="#dcd3d3" d="M 6.355469 21.664062 C 6.179688 21.664062 6.039062 21.519531 6.039062 21.347656 L 6.039062 19.582031 C 6.039062 19.40625 6.179688 19.265625 6.355469 19.265625 C 6.527344 19.265625 6.667969 19.40625 6.667969 19.582031 L 6.667969 21.347656 C 6.667969 21.519531 6.527344 21.664062 6.355469 21.664062 Z M 6.355469 21.664062 " fill-opacity="1" fill-rule="nonzero"/><path fill="#dcd3d3" d="M 8.582031 23.070312 C 8.410156 23.070312 8.265625 22.925781 8.265625 22.753906 L 8.265625 21.347656 C 8.265625 21.171875 8.410156 21.03125 8.582031 21.03125 C 8.757812 21.03125 8.898438 21.171875 8.898438 21.347656 L 8.898438 22.753906 C 8.898438 22.925781 8.757812 23.070312 8.582031 23.070312 Z M 8.582031 23.070312 " fill-opacity="1" fill-rule="nonzero"/><path fill="#dcd3d3" d="M 11.34375 24.476562 C 11.171875 24.476562 11.027344 24.332031 11.027344 24.160156 L 11.027344 22.753906 C 11.027344 22.578125 11.171875 22.4375 11.34375 22.4375 C 11.519531 22.4375 11.660156 22.578125 11.660156 22.753906 L 11.660156 24.160156 C 11.660156 24.332031 11.519531 24.476562 11.34375 24.476562 Z M 11.34375 24.476562 " fill-opacity="1" fill-rule="nonzero"/><path fill="#dcd3d3" d="M 7.371094 26.242188 C 7.199219 26.242188 7.054688 26.101562 7.054688 25.925781 L 7.054688 24.160156 C 7.054688 23.984375 7.199219 23.84375 7.371094 23.84375 C 7.546875 23.84375 7.6875 23.984375 7.6875 24.160156 L 7.6875 25.925781 C 7.6875 26.101562 7.546875 26.242188 7.371094 26.242188 Z M 7.371094 26.242188 " fill-opacity="1" fill-rule="nonzero"/></svg>