<svg xmlns="http://www.w3.org/2000/svg" xmlns:xlink="http://www.w3.org/1999/xlink" width="40" zoomAndPan="magnify" viewBox="0 0 30 30.000001" height="40" preserveAspectRatio="xMidYMid meet" version="1.0"><defs><clipPath id="c20355d1e3"><path d="M 12 1.089844 L 19 1.089844 L 19 5 L 12 5 Z M 12 1.089844 " clip-rule="nonzero"/></clipPath><clipPath id="5462f22b6a"><path d="M 2.007812 13 L 11 13 L 11 17 L 2.007812 17 Z M 2.007812 13 " clip-rule="nonzero"/></clipPath><clipPath id="4416a399cc"><path d="M 10 19 L 22 19 L 22 27.21875 L 10 27.21875 Z M 10 19 " clip-rule="nonzero"/></clipPath><clipPath id="4a45001f85"><path d="M 15 25 L 16 25 L 16 27.21875 L 15 27.21875 Z M 15 25 " clip-rule="nonzero"/></clipPath><clipPath id="26de6d8237"><path d="M 10 26 L 21 26 L 21 27.21875 L 10 27.21875 Z M 10 26 " clip-rule="nonzero"/></clipPath></defs><path fill="#235497" d="M 18.929688 20.945312 L 12.285156 20.945312 C 11.558594 20.945312 10.84375 20.753906 10.214844 20.390625 C 9.578125 20.019531 9.054688 19.496094 8.691406 18.867188 C 8.328125 18.238281 8.136719 17.523438 8.136719 16.796875 C 8.132812 16.058594 8.324219 15.34375 8.6875 14.714844 L 12.011719 8.960938 C 12.101562 8.800781 12.207031 8.648438 12.316406 8.503906 C 12.402344 8.394531 12.550781 8.355469 12.679688 8.410156 C 12.792969 8.457031 12.914062 8.484375 13.039062 8.484375 L 16.566406 8.484375 C 16.652344 8.484375 16.734375 8.519531 16.792969 8.585938 C 16.851562 8.648438 16.878906 8.734375 16.871094 8.820312 C 16.710938 10.324219 17.230469 11.796875 18.296875 12.863281 C 19.300781 13.867188 20.667969 14.390625 22.089844 14.3125 C 22.203125 14.304688 22.3125 14.367188 22.371094 14.464844 L 22.515625 14.722656 C 22.882812 15.355469 23.078125 16.070312 23.078125 16.796875 C 23.078125 17.800781 22.710938 18.769531 22.042969 19.527344 L 21.992188 19.589844 C 21.703125 19.90625 21.371094 20.175781 21 20.386719 C 20.367188 20.753906 19.652344 20.945312 18.929688 20.945312 Z M 12.675781 9.050781 C 12.628906 9.121094 12.582031 9.195312 12.539062 9.269531 L 9.21875 15.023438 C 8.910156 15.558594 8.746094 16.167969 8.746094 16.785156 C 8.746094 17.414062 8.910156 18.023438 9.222656 18.5625 C 9.53125 19.097656 9.976562 19.546875 10.511719 19.855469 C 11.058594 20.171875 11.667969 20.332031 12.285156 20.332031 L 18.929688 20.335938 C 19.546875 20.335938 20.15625 20.171875 20.6875 19.863281 C 21.011719 19.675781 21.292969 19.449219 21.539062 19.179688 L 21.585938 19.121094 C 22.152344 18.476562 22.464844 17.652344 22.464844 16.796875 C 22.464844 16.179688 22.300781 15.570312 21.992188 15.035156 L 21.933594 14.929688 C 20.402344 14.964844 18.949219 14.378906 17.867188 13.296875 C 16.75 12.179688 16.164062 10.664062 16.238281 9.09375 L 13.039062 9.09375 C 12.917969 9.09375 12.792969 9.082031 12.675781 9.050781 Z M 12.675781 9.050781 " fill-opacity="1" fill-rule="evenodd"/><path fill="#235497" d="M 16.566406 9.09375 L 13.039062 9.09375 C 12.1875 9.09375 11.496094 8.402344 11.496094 7.550781 C 11.496094 6.699219 12.191406 6.007812 13.039062 6.007812 L 17.492188 6.007812 C 17.609375 6.007812 17.710938 6.070312 17.765625 6.171875 C 17.816406 6.273438 17.808594 6.394531 17.742188 6.488281 C 17.261719 7.175781 16.957031 7.984375 16.871094 8.820312 C 16.855469 8.976562 16.722656 9.09375 16.566406 9.09375 Z M 13.039062 6.621094 C 12.527344 6.621094 12.109375 7.039062 12.109375 7.550781 C 12.109375 8.066406 12.527344 8.484375 13.039062 8.484375 L 16.296875 8.484375 C 16.398438 7.828125 16.617188 7.195312 16.941406 6.621094 Z M 13.039062 6.621094 " fill-opacity="1" fill-rule="evenodd"/><path fill="#235497" d="M 15.605469 18.742188 C 13.503906 18.742188 11.796875 17.035156 11.796875 14.933594 C 11.796875 12.832031 13.503906 11.121094 15.605469 11.121094 C 16.183594 11.121094 16.742188 11.25 17.257812 11.5 C 17.320312 11.527344 17.367188 11.574219 17.398438 11.632812 C 17.632812 12.085938 17.933594 12.5 18.300781 12.863281 C 18.535156 13.101562 18.796875 13.316406 19.078125 13.5 C 19.132812 13.535156 19.171875 13.589844 19.195312 13.652344 C 19.34375 14.0625 19.417969 14.492188 19.417969 14.933594 C 19.417969 17.035156 17.707031 18.742188 15.605469 18.742188 Z M 15.605469 11.734375 C 13.84375 11.734375 12.40625 13.167969 12.40625 14.933594 C 12.40625 16.699219 13.84375 18.132812 15.605469 18.132812 C 17.371094 18.132812 18.804688 16.695312 18.804688 14.933594 C 18.804688 14.597656 18.753906 14.265625 18.652344 13.949219 C 18.371094 13.757812 18.109375 13.539062 17.867188 13.296875 C 17.484375 12.914062 17.160156 12.480469 16.902344 12.007812 C 16.496094 11.828125 16.058594 11.734375 15.605469 11.734375 Z M 15.605469 11.734375 " fill-opacity="1" fill-rule="evenodd"/><path fill="#235497" d="M 16.167969 16.953125 L 15.042969 16.953125 C 14.550781 16.953125 14.152344 16.550781 14.152344 16.058594 C 14.152344 15.890625 14.289062 15.753906 14.457031 15.753906 C 14.625 15.753906 14.761719 15.890625 14.761719 16.058594 C 14.761719 16.214844 14.886719 16.339844 15.042969 16.339844 L 16.167969 16.339844 C 16.324219 16.339844 16.449219 16.214844 16.449219 16.058594 L 16.449219 15.519531 C 16.449219 15.367188 16.324219 15.238281 16.167969 15.238281 L 15.042969 15.238281 C 14.550781 15.238281 14.152344 14.839844 14.152344 14.347656 L 14.152344 13.808594 C 14.152344 13.316406 14.550781 12.914062 15.042969 12.914062 L 16.167969 12.914062 C 16.660156 12.914062 17.0625 13.316406 17.0625 13.808594 C 17.0625 13.976562 16.925781 14.113281 16.757812 14.113281 C 16.589844 14.113281 16.449219 13.976562 16.449219 13.808594 C 16.449219 13.652344 16.324219 13.527344 16.167969 13.527344 L 15.042969 13.527344 C 14.886719 13.527344 14.761719 13.652344 14.761719 13.808594 L 14.761719 14.347656 C 14.761719 14.5 14.886719 14.628906 15.042969 14.628906 L 16.167969 14.628906 C 16.660156 14.628906 17.0625 15.027344 17.0625 15.519531 L 17.0625 16.058594 C 17.0625 16.550781 16.660156 16.953125 16.167969 16.953125 Z M 16.167969 16.953125 " fill-opacity="1" fill-rule="evenodd"/><path fill="#235497" d="M 15.605469 13.527344 C 15.4375 13.527344 15.300781 13.390625 15.300781 13.21875 L 15.300781 12.535156 C 15.300781 12.367188 15.4375 12.230469 15.605469 12.230469 C 15.773438 12.230469 15.910156 12.367188 15.910156 12.535156 L 15.910156 13.21875 C 15.910156 13.390625 15.773438 13.527344 15.605469 13.527344 Z M 15.605469 13.527344 " fill-opacity="1" fill-rule="evenodd"/><path fill="#235497" d="M 15.605469 17.636719 C 15.4375 17.636719 15.300781 17.5 15.300781 17.332031 L 15.300781 16.648438 C 15.300781 16.476562 15.4375 16.339844 15.605469 16.339844 C 15.773438 16.339844 15.910156 16.476562 15.910156 16.648438 L 15.910156 17.332031 C 15.910156 17.5 15.773438 17.636719 15.605469 17.636719 Z M 15.605469 17.636719 " fill-opacity="1" fill-rule="evenodd"/><g clip-path="url(#c20355d1e3)"><path fill="#235497" d="M 14.125 4.898438 C 14.027344 4.898438 13.929688 4.851562 13.871094 4.765625 L 12.988281 3.472656 C 12.828125 3.238281 12.742188 2.972656 12.734375 2.699219 L 12.734375 2.632812 C 12.742188 2.371094 12.824219 2.113281 12.972656 1.886719 L 13.007812 1.832031 C 13.164062 1.617188 13.375 1.433594 13.625 1.308594 L 13.648438 1.296875 C 13.648438 1.296875 13.652344 1.292969 13.652344 1.292969 C 13.929688 1.160156 14.234375 1.089844 14.542969 1.089844 L 16.671875 1.089844 C 16.964844 1.089844 17.257812 1.152344 17.515625 1.269531 L 17.585938 1.304688 C 17.738281 1.382812 17.871094 1.476562 17.988281 1.589844 L 18.011719 1.609375 C 18.3125 1.902344 18.480469 2.273438 18.480469 2.664062 C 18.480469 2.933594 18.398438 3.203125 18.246094 3.4375 L 18.230469 3.464844 L 17.339844 4.765625 C 17.246094 4.90625 17.054688 4.941406 16.914062 4.847656 C 16.777344 4.75 16.738281 4.5625 16.835938 4.421875 L 17.734375 3.101562 C 17.820312 2.96875 17.867188 2.820312 17.867188 2.664062 C 17.867188 2.441406 17.769531 2.222656 17.589844 2.050781 L 17.574219 2.035156 C 17.496094 1.964844 17.40625 1.902344 17.308594 1.851562 L 17.253906 1.824219 C 17.078125 1.742188 16.878906 1.699219 16.671875 1.699219 L 14.542969 1.699219 C 14.328125 1.699219 14.117188 1.746094 13.933594 1.835938 C 13.929688 1.839844 13.929688 1.839844 13.925781 1.839844 L 13.902344 1.851562 C 13.742188 1.933594 13.605469 2.050781 13.507812 2.183594 L 13.480469 2.222656 C 13.394531 2.355469 13.351562 2.5 13.347656 2.648438 L 13.347656 2.691406 C 13.351562 2.84375 13.398438 2.992188 13.492188 3.128906 L 14.375 4.421875 C 14.472656 4.5625 14.433594 4.75 14.296875 4.847656 C 14.242188 4.882812 14.183594 4.898438 14.125 4.898438 Z M 14.125 4.898438 " fill-opacity="1" fill-rule="evenodd"/></g><path fill="#235497" d="M 19.679688 4.824219 C 19.648438 4.824219 19.613281 4.816406 19.582031 4.804688 C 19.421875 4.75 19.335938 4.578125 19.390625 4.417969 C 19.492188 4.128906 19.484375 3.902344 19.363281 3.726562 C 19.105469 3.34375 18.386719 3.230469 18.128906 3.214844 C 17.960938 3.207031 17.832031 3.066406 17.839844 2.894531 C 17.847656 2.726562 17.988281 2.597656 18.15625 2.605469 C 18.285156 2.609375 19.394531 2.679688 19.871094 3.382812 C 20.101562 3.722656 20.136719 4.140625 19.96875 4.617188 C 19.925781 4.742188 19.808594 4.824219 19.679688 4.824219 Z M 19.679688 4.824219 " fill-opacity="1" fill-rule="evenodd"/><path fill="#235497" d="M 12.859375 6.632812 C 12.78125 6.632812 12.703125 6.601562 12.644531 6.542969 C 11.402344 5.316406 10.933594 4.359375 11.21875 3.617188 C 11.578125 2.683594 12.996094 2.609375 13.054688 2.605469 C 13.222656 2.597656 13.367188 2.726562 13.375 2.898438 C 13.382812 3.066406 13.25 3.207031 13.082031 3.214844 C 12.785156 3.230469 11.96875 3.371094 11.789062 3.835938 C 11.6875 4.109375 11.714844 4.765625 13.074219 6.109375 C 13.191406 6.226562 13.195312 6.421875 13.074219 6.542969 C 13.015625 6.601562 12.9375 6.632812 12.859375 6.632812 Z M 12.859375 6.632812 " fill-opacity="1" fill-rule="evenodd"/><path fill="#235497" d="M 8.941406 18.992188 L 6.816406 18.992188 C 5.941406 18.992188 5.230469 18.28125 5.230469 17.40625 L 5.230469 16.125 C 5.230469 15.957031 5.367188 15.820312 5.535156 15.820312 L 8.496094 15.820312 C 8.585938 15.820312 8.671875 15.859375 8.730469 15.929688 C 8.789062 16 8.8125 16.089844 8.796875 16.179688 C 8.765625 16.378906 8.746094 16.582031 8.746094 16.785156 C 8.746094 17.40625 8.90625 18.007812 9.207031 18.535156 C 9.261719 18.632812 9.261719 18.746094 9.207031 18.84375 C 9.152344 18.9375 9.050781 18.992188 8.941406 18.992188 Z M 5.839844 16.433594 L 5.839844 17.40625 C 5.839844 17.945312 6.277344 18.382812 6.816406 18.382812 L 8.453125 18.382812 C 8.242188 17.882812 8.136719 17.339844 8.136719 16.796875 C 8.136719 16.671875 8.140625 16.550781 8.148438 16.433594 Z M 5.839844 16.433594 " fill-opacity="1" fill-rule="evenodd"/><g clip-path="url(#5462f22b6a)"><path fill="#235497" d="M 8.496094 16.433594 L 4.285156 16.433594 C 3.410156 16.433594 2.699219 15.722656 2.699219 14.847656 L 2.699219 13.566406 C 2.699219 13.398438 2.835938 13.261719 3.003906 13.261719 L 9.707031 13.261719 C 9.816406 13.261719 9.917969 13.316406 9.96875 13.414062 C 10.023438 13.507812 10.023438 13.625 9.96875 13.71875 L 9.21875 15.023438 C 9.011719 15.382812 8.867188 15.773438 8.796875 16.179688 C 8.773438 16.324219 8.644531 16.433594 8.496094 16.433594 Z M 3.3125 13.871094 L 3.3125 14.847656 C 3.3125 15.382812 3.75 15.820312 4.285156 15.820312 L 8.246094 15.820312 C 8.339844 15.433594 8.488281 15.0625 8.6875 14.71875 L 9.175781 13.871094 Z M 3.3125 13.871094 " fill-opacity="1" fill-rule="evenodd"/></g><path fill="#235497" d="M 9.707031 13.871094 L 6.816406 13.871094 C 5.941406 13.871094 5.230469 13.160156 5.230469 12.285156 L 5.230469 11.003906 C 5.230469 10.835938 5.367188 10.699219 5.535156 10.699219 L 11.183594 10.699219 C 11.292969 10.699219 11.394531 10.757812 11.449219 10.851562 C 11.503906 10.945312 11.503906 11.0625 11.449219 11.15625 L 9.96875 13.71875 C 9.914062 13.8125 9.816406 13.871094 9.707031 13.871094 Z M 5.839844 11.308594 L 5.839844 12.285156 C 5.839844 12.824219 6.277344 13.257812 6.816406 13.257812 L 9.527344 13.257812 L 10.65625 11.308594 Z M 5.839844 11.308594 " fill-opacity="1" fill-rule="evenodd"/><g clip-path="url(#4416a399cc)"><path fill="#235497" d="M 15.605469 27.171875 C 12.613281 27.171875 10.179688 24.738281 10.179688 21.746094 C 10.179688 21.222656 10.257812 20.707031 10.402344 20.207031 C 10.429688 20.121094 10.488281 20.054688 10.570312 20.015625 C 10.652344 19.980469 10.742188 19.980469 10.824219 20.015625 C 11.285156 20.226562 11.777344 20.332031 12.285156 20.332031 L 18.929688 20.332031 C 19.4375 20.332031 19.929688 20.226562 20.386719 20.015625 C 20.46875 19.980469 20.5625 19.980469 20.640625 20.015625 C 20.722656 20.054688 20.785156 20.121094 20.808594 20.207031 C 20.957031 20.707031 21.03125 21.226562 21.03125 21.746094 C 21.03125 24.738281 18.597656 27.171875 15.605469 27.171875 Z M 10.90625 20.707031 C 10.832031 21.046875 10.792969 21.394531 10.792969 21.746094 C 10.792969 24.402344 12.953125 26.5625 15.605469 26.5625 C 18.261719 26.5625 20.417969 24.402344 20.417969 21.746094 C 20.417969 21.398438 20.382812 21.050781 20.308594 20.707031 C 19.867188 20.867188 19.402344 20.945312 18.929688 20.945312 L 12.285156 20.945312 C 11.808594 20.945312 11.347656 20.867188 10.90625 20.707031 Z M 10.90625 20.707031 " fill-opacity="1" fill-rule="evenodd"/></g><path fill="#235497" d="M 15.605469 25.992188 C 13.265625 25.992188 11.359375 24.089844 11.359375 21.746094 C 11.359375 21.332031 11.421875 20.921875 11.539062 20.523438 C 11.582031 20.382812 11.71875 20.292969 11.867188 20.308594 C 12.003906 20.324219 12.144531 20.332031 12.285156 20.332031 L 18.929688 20.332031 C 19.066406 20.332031 19.207031 20.324219 19.34375 20.308594 C 19.492188 20.292969 19.632812 20.382812 19.671875 20.523438 C 19.792969 20.921875 19.851562 21.332031 19.851562 21.746094 C 19.851562 24.089844 17.949219 25.992188 15.605469 25.992188 Z M 12.0625 20.9375 C 12 21.203125 11.972656 21.472656 11.972656 21.746094 C 11.972656 23.75 13.601562 25.382812 15.605469 25.382812 C 17.609375 25.382812 19.242188 23.75 19.242188 21.746094 C 19.242188 21.472656 19.210938 21.203125 19.152344 20.941406 C 19.078125 20.945312 19.003906 20.945312 18.929688 20.945312 L 12.285156 20.945312 C 12.210938 20.945312 12.136719 20.941406 12.0625 20.9375 Z M 12.0625 20.9375 " fill-opacity="1" fill-rule="evenodd"/><path fill="#235497" d="M 19.226562 25.671875 C 19.148438 25.671875 19.070312 25.644531 19.011719 25.582031 L 18.175781 24.75 C 18.058594 24.628906 18.058594 24.4375 18.175781 24.316406 C 18.296875 24.199219 18.488281 24.199219 18.609375 24.316406 L 19.441406 25.152344 C 19.5625 25.269531 19.5625 25.464844 19.441406 25.582031 C 19.382812 25.644531 19.304688 25.671875 19.226562 25.671875 Z M 19.226562 25.671875 " fill-opacity="1" fill-rule="evenodd"/><g clip-path="url(#4a45001f85)"><path fill="#235497" d="M 15.605469 27.171875 C 15.4375 27.171875 15.300781 27.035156 15.300781 26.867188 L 15.300781 25.6875 C 15.300781 25.519531 15.4375 25.382812 15.605469 25.382812 C 15.773438 25.382812 15.910156 25.519531 15.910156 25.6875 L 15.910156 26.867188 C 15.910156 27.035156 15.773438 27.171875 15.605469 27.171875 Z M 15.605469 27.171875 " fill-opacity="1" fill-rule="evenodd"/></g><path fill="#235497" d="M 11.988281 25.671875 C 11.910156 25.671875 11.828125 25.644531 11.769531 25.582031 C 11.652344 25.464844 11.652344 25.269531 11.769531 25.152344 L 12.605469 24.316406 C 12.722656 24.199219 12.917969 24.199219 13.035156 24.316406 C 13.15625 24.4375 13.15625 24.628906 13.035156 24.75 L 12.203125 25.582031 C 12.144531 25.644531 12.066406 25.671875 11.988281 25.671875 Z M 11.988281 25.671875 " fill-opacity="1" fill-rule="evenodd"/><path fill="#235497" d="M 11.664062 22.054688 L 10.488281 22.054688 C 10.320312 22.054688 10.183594 21.914062 10.183594 21.746094 C 10.183594 21.578125 10.320312 21.441406 10.488281 21.441406 L 11.664062 21.441406 C 11.835938 21.441406 11.972656 21.578125 11.972656 21.746094 C 11.972656 21.914062 11.835938 22.054688 11.664062 22.054688 Z M 11.664062 22.054688 " fill-opacity="1" fill-rule="evenodd"/><path fill="#235497" d="M 20.726562 22.054688 L 19.546875 22.054688 C 19.378906 22.054688 19.242188 21.914062 19.242188 21.746094 C 19.242188 21.578125 19.378906 21.441406 19.546875 21.441406 L 20.726562 21.441406 C 20.894531 21.441406 21.03125 21.578125 21.03125 21.746094 C 21.03125 21.914062 20.894531 22.054688 20.726562 22.054688 Z M 20.726562 22.054688 " fill-opacity="1" fill-rule="evenodd"/><path fill="#235497" d="M 16.226562 23.941406 L 14.984375 23.941406 C 14.460938 23.941406 14.03125 23.511719 14.03125 22.988281 C 14.03125 22.820312 14.167969 22.683594 14.339844 22.683594 C 14.507812 22.683594 14.644531 22.820312 14.644531 22.988281 C 14.644531 23.175781 14.796875 23.328125 14.984375 23.328125 L 16.226562 23.328125 C 16.414062 23.328125 16.570312 23.175781 16.570312 22.988281 L 16.570312 22.394531 C 16.570312 22.207031 16.414062 22.054688 16.226562 22.054688 L 14.984375 22.054688 C 14.460938 22.054688 14.03125 21.625 14.03125 21.101562 L 14.03125 20.640625 C 14.03125 20.472656 14.167969 20.332031 14.339844 20.332031 C 14.507812 20.332031 14.644531 20.472656 14.644531 20.640625 L 14.644531 21.101562 C 14.644531 21.289062 14.796875 21.441406 14.984375 21.441406 L 16.226562 21.441406 C 16.753906 21.441406 17.179688 21.867188 17.179688 22.394531 L 17.179688 22.988281 C 17.179688 23.511719 16.753906 23.941406 16.226562 23.941406 Z M 16.226562 23.941406 " fill-opacity="1" fill-rule="evenodd"/><path fill="#235497" d="M 15.605469 24.695312 C 15.4375 24.695312 15.300781 24.558594 15.300781 24.390625 L 15.300781 23.636719 C 15.300781 23.464844 15.4375 23.328125 15.605469 23.328125 C 15.773438 23.328125 15.910156 23.46875 15.910156 23.636719 L 15.910156 24.390625 C 15.910156 24.558594 15.773438 24.695312 15.605469 24.695312 Z M 15.605469 24.695312 " fill-opacity="1" fill-rule="evenodd"/><path fill="#235497" d="M 21.816406 14.933594 C 20.324219 14.933594 18.921875 14.351562 17.867188 13.296875 C 16.8125 12.242188 16.230469 10.839844 16.230469 9.347656 C 16.230469 7.855469 16.8125 6.453125 17.867188 5.398438 C 18.921875 4.34375 20.324219 3.761719 21.816406 3.761719 C 23.308594 3.761719 24.710938 4.34375 25.765625 5.398438 C 27.945312 7.574219 27.945312 11.121094 25.765625 13.296875 C 24.710938 14.351562 23.308594 14.933594 21.816406 14.933594 Z M 21.816406 4.371094 C 20.488281 4.371094 19.238281 4.890625 18.300781 5.828125 C 17.359375 6.769531 16.84375 8.019531 16.84375 9.347656 C 16.84375 10.675781 17.359375 11.925781 18.300781 12.863281 C 19.238281 13.804688 20.488281 14.320312 21.816406 14.320312 C 23.144531 14.320312 24.394531 13.804688 25.332031 12.863281 C 27.273438 10.925781 27.273438 7.769531 25.332031 5.828125 C 24.394531 4.890625 23.144531 4.371094 21.816406 4.371094 Z M 21.816406 4.371094 " fill-opacity="1" fill-rule="evenodd"/><path fill="#235497" d="M 19.433594 12.035156 C 19.355469 12.035156 19.277344 12.003906 19.21875 11.945312 C 19.097656 11.828125 19.097656 11.632812 19.21875 11.515625 L 23.984375 6.75 C 24.101562 6.628906 24.296875 6.628906 24.414062 6.75 C 24.535156 6.867188 24.535156 7.0625 24.414062 7.179688 L 19.648438 11.945312 C 19.589844 12.007812 19.511719 12.035156 19.433594 12.035156 Z M 19.433594 12.035156 " fill-opacity="1" fill-rule="evenodd"/><path fill="#235497" d="M 23.484375 12.40625 C 23.109375 12.40625 22.761719 12.261719 22.496094 12 C 22.234375 11.734375 22.089844 11.386719 22.089844 11.011719 C 22.089844 10.640625 22.234375 10.292969 22.496094 10.027344 C 22.761719 9.765625 23.109375 9.621094 23.484375 9.621094 C 23.855469 9.621094 24.203125 9.765625 24.46875 10.027344 C 24.730469 10.292969 24.875 10.640625 24.875 11.015625 C 24.875 11.386719 24.730469 11.734375 24.46875 12 C 24.203125 12.261719 23.855469 12.40625 23.484375 12.40625 Z M 23.484375 10.230469 C 23.273438 10.230469 23.078125 10.3125 22.929688 10.460938 C 22.78125 10.609375 22.699219 10.804688 22.699219 11.011719 C 22.699219 11.222656 22.78125 11.417969 22.929688 11.566406 C 23.226562 11.863281 23.742188 11.863281 24.035156 11.566406 C 24.183594 11.417969 24.265625 11.222656 24.265625 11.011719 C 24.265625 10.804688 24.183594 10.609375 24.035156 10.460938 C 23.886719 10.3125 23.691406 10.230469 23.484375 10.230469 Z M 23.484375 10.230469 " fill-opacity="1" fill-rule="evenodd"/><path fill="#235497" d="M 20.242188 9.167969 C 19.871094 9.167969 19.523438 9.023438 19.257812 8.761719 C 18.714844 8.21875 18.714844 7.332031 19.257812 6.789062 C 19.523438 6.527344 19.871094 6.382812 20.242188 6.382812 C 20.617188 6.382812 20.964844 6.527344 21.230469 6.789062 C 21.492188 7.054688 21.636719 7.402344 21.636719 7.773438 C 21.636719 8.148438 21.492188 8.496094 21.230469 8.761719 C 20.964844 9.023438 20.617188 9.167969 20.242188 9.167969 Z M 20.242188 6.992188 C 20.035156 6.992188 19.839844 7.074219 19.691406 7.222656 C 19.386719 7.527344 19.386719 8.023438 19.691406 8.328125 C 19.988281 8.625 20.5 8.625 20.796875 8.328125 C 20.945312 8.179688 21.027344 7.984375 21.027344 7.773438 C 21.027344 7.566406 20.945312 7.371094 20.796875 7.222656 C 20.648438 7.074219 20.453125 6.992188 20.242188 6.992188 Z M 20.242188 6.992188 " fill-opacity="1" fill-rule="evenodd"/><g clip-path="url(#26de6d8237)"><path fill="#235497" d="M 20.105469 27.171875 L 11.109375 27.171875 C 10.941406 27.171875 10.804688 27.035156 10.804688 26.867188 C 10.804688 26.699219 10.941406 26.5625 11.109375 26.5625 L 20.105469 26.5625 C 20.273438 26.5625 20.410156 26.699219 20.410156 26.867188 C 20.410156 27.035156 20.273438 27.171875 20.105469 27.171875 Z M 20.105469 27.171875 " fill-opacity="1" fill-rule="evenodd"/></g><path fill="#235497" d="M 24.722656 26.191406 L 22.652344 26.191406 C 22.484375 26.191406 22.347656 26.054688 22.347656 25.886719 C 22.347656 25.71875 22.484375 25.582031 22.652344 25.582031 L 24.722656 25.582031 C 24.890625 25.582031 25.027344 25.71875 25.027344 25.886719 C 25.027344 26.054688 24.890625 26.191406 24.722656 26.191406 Z M 24.722656 26.191406 " fill-opacity="1" fill-rule="evenodd"/><path fill="#235497" d="M 24.722656 24.125 L 22.652344 24.125 C 22.484375 24.125 22.347656 23.984375 22.347656 23.816406 C 22.347656 23.648438 22.484375 23.511719 22.652344 23.511719 L 24.722656 23.511719 C 24.890625 23.511719 25.027344 23.648438 25.027344 23.816406 C 25.027344 23.984375 24.890625 24.125 24.722656 24.125 Z M 24.722656 24.125 " fill-opacity="1" fill-rule="evenodd"/><path fill="#235497" d="M 24.722656 22.054688 L 22.652344 22.054688 C 22.484375 22.054688 22.347656 21.917969 22.347656 21.746094 C 22.347656 21.578125 22.484375 21.441406 22.652344 21.441406 L 24.722656 21.441406 C 24.890625 21.441406 25.027344 21.578125 25.027344 21.746094 C 25.027344 21.917969 24.890625 22.054688 24.722656 22.054688 Z M 24.722656 22.054688 " fill-opacity="1" fill-rule="evenodd"/><path fill="#235497" d="M 7.449219 26.191406 L 5.378906 26.191406 C 5.210938 26.191406 5.074219 26.054688 5.074219 25.886719 C 5.074219 25.71875 5.210938 25.582031 5.378906 25.582031 L 7.449219 25.582031 C 7.617188 25.582031 7.753906 25.71875 7.753906 25.886719 C 7.753906 26.054688 7.617188 26.191406 7.449219 26.191406 Z M 7.449219 26.191406 " fill-opacity="1" fill-rule="evenodd"/><path fill="#235497" d="M 7.449219 24.125 L 5.378906 24.125 C 5.210938 24.125 5.074219 23.984375 5.074219 23.816406 C 5.074219 23.648438 5.210938 23.511719 5.378906 23.511719 L 7.449219 23.511719 C 7.617188 23.511719 7.753906 23.648438 7.753906 23.816406 C 7.753906 23.984375 7.617188 24.125 7.449219 24.125 Z M 7.449219 24.125 " fill-opacity="1" fill-rule="evenodd"/><path fill="#235497" d="M 7.449219 22.054688 L 5.378906 22.054688 C 5.210938 22.054688 5.074219 21.917969 5.074219 21.746094 C 5.074219 21.578125 5.210938 21.441406 5.378906 21.441406 L 7.449219 21.441406 C 7.617188 21.441406 7.753906 21.578125 7.753906 21.746094 C 7.753906 21.917969 7.617188 22.054688 7.449219 22.054688 Z M 7.449219 22.054688 " fill-opacity="1" fill-rule="evenodd"/></svg>